<svg width="24" height="24" fill="none" xmlns="http://www.w3.org/2000/svg"><path d="M9 0C7.09 0 5.543 1.387 5.156 3.188 2.824 3.604 1 5.55 1 8c0 .246.027.465.063.688C.418 9.636 0 10.753 0 12c0 1.797.895 3.309 2.156 4.406-.09.356-.156.711-.156 1.094C2 19.973 4.027 22 6.5 22h.063c.582 1.129 1.59 2 2.937 2a3.49 3.49 0 002.5-1.063A3.489 3.489 0 0014.5 24c1.348 0 2.355-.871 2.938-2h.062c2.348 0 4.273-1.828 4.469-4.125H22c0-.063-.027-.125-.031-.188.004-.062.031-.125.031-.187 0-.371-.133-.688-.219-1.031C23.078 15.367 24 13.829 24 12c0-1.246-.418-2.363-1.063-3.313.036-.222.063-.44.063-.687 0-2.45-1.824-4.395-4.156-4.813C18.457 1.388 16.91 0 15 0c-1.2 0-2.266.559-3 1.406C11.266.56 10.2 0 9 0zm0 2c1.117 0 2 .883 2 2v2c0 1.668-1.332 3-3 3v2c1.133 0 2.16-.39 3-1.031V20.5c0 .84-.66 1.5-1.5 1.5a1.47 1.47 0 01-1.469-1.219l-.187-.968-.969.156A2.487 2.487 0 014 17.5c0-.309.05-.598.156-.875.008-.023.024-.04.031-.063A2.468 2.468 0 016 15.062l-.406-1.968A4.452 4.452 0 003 14.656 3.958 3.958 0 012 12a3.9 3.9 0 01.875-2.469l.313-.375-.094-.5A2.858 2.858 0 013 8c0-1.668 1.332-3 3-3h1V4c0-1.117.883-2 2-2zm6 0c1.117 0 2 .883 2 2v1h1c1.668 0 3 1.332 3 3 0 .215-.04.422-.094.656l-.093.5.312.375A3.9 3.9 0 0122 12c0 1.2-.512 2.27-1.344 3-.683-.605-1.554-1-2.531-1-.945 0-1.797.336-2.469.906l1.282 1.532c.33-.284.752-.44 1.187-.438.965 0 1.734.723 1.844 1.656C19.887 18.973 18.836 20 17.5 20c-.09 0-.2-.004-.375-.031l-.969-.157-.187.97A1.47 1.47 0 0114.5 22c-.84 0-1.5-.66-1.5-1.5V9.969A4.915 4.915 0 0016 11V9c-1.668 0-3-1.332-3-3V4c0-1.117.883-2 2-2z" fill="#fff"/></svg>