<svg width="22" height="22" fill="none" xmlns="http://www.w3.org/2000/svg"><path d="M11 1C5.478 1 1 5.478 1 11s4.478 10 10 10 10-4.478 10-10S16.522 1 11 1zm0 18.304A8.305 8.305 0 012.696 11 8.305 8.305 0 0111 2.696 8.305 8.305 0 0119.304 11 8.305 8.305 0 0111 19.304z" fill="#fff"/><path d="M14.9 13.826l-3.184-2.301V6a.18.18 0 00-.178-.179h-1.074a.18.18 0 00-.178.179v6.147c0 .058.027.112.073.145l3.692 2.692a.18.18 0 00.25-.038l.639-.87a.178.178 0 00-.04-.25z" fill="#fff"/><path d="M11 1C5.478 1 1 5.478 1 11s4.478 10 10 10 10-4.478 10-10S16.522 1 11 1zm0 18.304A8.305 8.305 0 012.696 11 8.305 8.305 0 0111 2.696 8.305 8.305 0 0119.304 11 8.305 8.305 0 0111 19.304z" stroke="#fff" stroke-width=".6"/><path d="M14.9 13.826l-3.184-2.301V6a.18.18 0 00-.178-.179h-1.074a.18.18 0 00-.178.179v6.147c0 .058.027.112.073.145l3.692 2.692a.18.18 0 00.25-.038l.639-.87a.178.178 0 00-.04-.25z" stroke="#fff" stroke-width=".6"/></svg>