<svg width="21" height="22" fill="none" xmlns="http://www.w3.org/2000/svg"><g clip-path="url(#clip0)"><path d="M3.004 22h14.892c.754 0 1.4-.25 1.937-.752.537-.501.82-1.139.85-1.912v-.086c0-.688-.19-1.332-.567-1.934l-6.88-9.066V1.848h.915c.232 0 .45-.1.653-.301.203-.2.305-.415.305-.645 0-.229-.102-.437-.305-.623S14.384 0 14.151 0H6.75c-.232 0-.45.093-.653.28-.203.185-.305.393-.305.622 0 .23.102.444.305.645.203.2.42.3.653.3h.914v6.317L.871 17.23c-.377.602-.566 1.218-.566 1.848l-.087.172c.029.773.32 1.425.87 1.955.552.53 1.19.795 1.916.795zm4.66-10.742l.478-.516a8.233 8.233 0 001.394-3.308V1.848h1.828v5.5c.262 1.346.726 2.435 1.394 3.265l.479.559 1.872 2.492H5.791l1.872-2.406zm-5.313 7.09l2.526-3.395-.695.645h12.32l2.047 2.75c.058.057.145.33.261.816a.975.975 0 01-.283.688c-.189.2-.4.3-.631.3H3.004c-.232 0-.442-.1-.63-.3a.975.975 0 01-.284-.688c0-.372.087-.645.261-.816z" fill="#fff"/></g><defs><clipPath id="clip0"><path fill="#fff" d="M0 0h20.9v22H0z"/></clipPath></defs></svg>