<svg width="27" height="22" fill="none" xmlns="http://www.w3.org/2000/svg"><path d="M24.75 9h-3.125a1.235 1.235 0 00-.887.38l-1.55 1.635-3.5-4.043a1.25 1.25 0 00-.913-.401 1.235 1.235 0 00-.912.4l-2.125 2.156H9.75c-.332 0-.65.133-.884.37a1.277 1.277 0 000 1.793c.235.238.552.372.884.372h2.5a1.234 1.234 0 00.887-.368l1.613-1.698 3.5 4.043a1.251 1.251 0 00.9.43 1.236 1.236 0 00.888-.367l2.125-2.167h2.587c.331 0 .65-.134.884-.371a1.277 1.277 0 000-1.793A1.241 1.241 0 0024.75 9zm-9.238 6.718l-2.375 2.408a1.248 1.248 0 01-.887.375 1.234 1.234 0 01-.887-.375L4.85 11.522a4.683 4.683 0 01-1-1.518 4.735 4.735 0 010-3.58 4.682 4.682 0 011-1.518A4.58 4.58 0 018.106 3.54c1.221 0 2.392.49 3.257 1.365a1.25 1.25 0 00.887.375 1.235 1.235 0 00.887-.375 4.69 4.69 0 013.257-1.32 4.69 4.69 0 013.256 1.32c.279.286.522.605.725.95a1.235 1.235 0 001.64.35c.267-.157.467-.41.561-.709a1.284 1.284 0 00-.051-.908 7.592 7.592 0 00-1.1-1.433 7.028 7.028 0 00-9.175-.799 7.017 7.017 0 00-7.392-.563 7.14 7.14 0 00-2.821 2.66A7.276 7.276 0 001 8.213c0 .943.184 1.877.542 2.747a7.13 7.13 0 001.546 2.323L9.6 19.888A3.724 3.724 0 0012.25 21c.994 0 1.947-.4 2.65-1.112l2.35-2.383a1.277 1.277 0 000-1.787 1.241 1.241 0 00-1.738 0z" fill="#fff" stroke="#1A47A1" stroke-width=".2"/></svg>