<svg width="24" height="24" fill="none" xmlns="http://www.w3.org/2000/svg"><path d="M6.893 11.364c.234 0 .461.07.655.201.194.132.345.319.434.537a1.213 1.213 0 01-.255 1.304 1.173 1.173 0 01-1.285.259c-.215-.09-.4-.244-.529-.44a1.209 1.209 0 01.147-1.51c.221-.225.52-.351.833-.351zm0-1.595c-.544 0-1.075.164-1.528.47a2.782 2.782 0 00-1.012 1.253 2.83 2.83 0 00-.157 1.612c.106.542.368 1.039.753 1.43.384.39.874.655 1.408.763a2.712 2.712 0 001.589-.159A2.759 2.759 0 009.18 14.11a2.82 2.82 0 00-.342-3.524 2.73 2.73 0 00-1.945-.817z" fill="#fff"/><path d="M19.073 10.566h-6.286a1.56 1.56 0 00-1.111.467c-.295.3-.46.705-.46 1.128v4.784H2.571v-9.09L12 2.705l9.846 5.374.739-1.404L12.37 1.094a.777.777 0 00-.738 0L1.416 6.675A.79.79 0 001 7.377v15.948h1.572V18.54H21.43v4.785h1.572v-8.772a4.017 4.017 0 00-1.15-2.819 3.9 3.9 0 00-2.779-1.168zm-6.286 6.38V12.16h6.286a2.34 2.34 0 011.667.7 2.41 2.41 0 01.69 1.692v2.392h-8.643z" fill="#fff"/><path d="M6.893 11.364c.234 0 .461.07.655.201.194.132.345.319.434.537a1.213 1.213 0 01-.255 1.304 1.173 1.173 0 01-1.285.259c-.215-.09-.4-.244-.529-.44a1.209 1.209 0 01.147-1.51c.221-.225.52-.351.833-.351zm0-1.595c-.544 0-1.075.164-1.528.47a2.782 2.782 0 00-1.012 1.253 2.83 2.83 0 00-.157 1.612c.106.542.368 1.039.753 1.43.384.39.874.655 1.408.763a2.712 2.712 0 001.589-.159A2.759 2.759 0 009.18 14.11a2.82 2.82 0 00-.342-3.524 2.73 2.73 0 00-1.945-.817z" stroke="#fff" stroke-width=".2"/><path d="M19.073 10.566h-6.286a1.56 1.56 0 00-1.111.467c-.295.3-.46.705-.46 1.128v4.784H2.571v-9.09L12 2.705l9.846 5.374.739-1.404L12.37 1.094a.777.777 0 00-.738 0L1.416 6.675A.79.79 0 001 7.377v15.948h1.572V18.54H21.43v4.785h1.572v-8.772a4.017 4.017 0 00-1.15-2.819 3.9 3.9 0 00-2.779-1.168zm-6.286 6.38V12.16h6.286a2.34 2.34 0 011.667.7 2.41 2.41 0 01.69 1.692v2.392h-8.643z" stroke="#fff" stroke-width=".2"/></svg>