<svg width="17" height="16" fill="none" xmlns="http://www.w3.org/2000/svg"><path d="M8.932 5.332A2.673 2.673 0 006.264 8a2.673 2.673 0 002.668 2.668A2.673 2.673 0 0011.6 8a2.673 2.673 0 00-2.668-2.668zM16.933 8c0-1.105.01-2.2-.052-3.302-.062-1.281-.354-2.418-1.29-3.355-.94-.938-2.074-1.228-3.355-1.29C11.132-.01 10.036 0 8.934 0c-1.105 0-2.2-.01-3.302.052-1.281.062-2.418.354-3.354 1.29-.939.94-1.23 2.074-1.291 3.355C.925 5.803.935 6.898.935 8c0 1.103-.01 2.2.052 3.302.062 1.281.354 2.418 1.29 3.354.94.94 2.074 1.23 3.355 1.291 1.105.062 2.2.052 3.302.052 1.105 0 2.2.01 3.302-.052 1.281-.062 2.418-.354 3.355-1.29.938-.94 1.228-2.074 1.29-3.355.064-1.102.052-2.197.052-3.302zm-8 4.105A4.099 4.099 0 014.826 8a4.099 4.099 0 014.105-4.105A4.099 4.099 0 0113.037 8a4.099 4.099 0 01-4.105 4.105zm4.272-7.42a.958.958 0 110-1.917.957.957 0 110 1.918z" fill="#fff"/></svg>