<svg width="13" height="20" fill="none" xmlns="http://www.w3.org/2000/svg"><path d="M6.514 0A5.168 5.168 0 001.35 5.162a5.167 5.167 0 005.163 5.16 5.166 5.166 0 005.161-5.16A5.167 5.167 0 006.514 0zm0 3.024A2.14 2.14 0 018.65 5.162a2.139 2.139 0 01-2.136 2.136 2.14 2.14 0 01-2.138-2.136 2.14 2.14 0 012.138-2.138zm-4.257 7.474a1.513 1.513 0 00-.83 2.794 9.688 9.688 0 002.997 1.24L1.539 17.42a1.512 1.512 0 102.14 2.138l2.834-2.836 2.836 2.836a1.511 1.511 0 102.139-2.138L8.6 14.533a9.67 9.67 0 002.997-1.241 1.512 1.512 0 10-1.61-2.56 6.555 6.555 0 01-6.95 0 1.505 1.505 0 00-.78-.234z" fill="#fff"/></svg>