<svg width="20" height="20" fill="none" xmlns="http://www.w3.org/2000/svg"><path d="M15.482 10.831a1.05 1.05 0 00-1.488 0l-1.678 1.678c-.777-.232-2.229-.758-3.148-1.678-.92-.92-1.446-2.37-1.678-3.148l1.678-1.677a1.051 1.051 0 000-1.488L4.958.308a1.051 1.051 0 00-1.487 0L.617 3.163c-.4.4-.625.95-.617 1.51.024 1.499.421 6.703 4.523 10.805C8.625 19.58 13.829 19.975 15.329 20h.03a2.08 2.08 0 001.478-.617l2.854-2.853a1.052 1.052 0 000-1.488l-4.21-4.21zm-.134 7.063c-1.313-.022-5.807-.374-9.337-3.906-3.542-3.542-3.885-8.05-3.906-9.338l2.11-2.11 2.72 2.722-1.36 1.36a1.052 1.052 0 00-.286.96c.025.121.643 2.99 2.39 4.737 1.747 1.747 4.616 2.365 4.737 2.39a1.043 1.043 0 00.96-.285l1.362-1.36 2.72 2.72-2.11 2.11z" fill="#fff"/></svg>