<svg width="274" height="71" fill="none" xmlns="http://www.w3.org/2000/svg"><path d="M51.84 67.593c-3.232 1.624-9.728 3.248-18.061 3.248C14.513 70.84 0 58.615 0 36.073 0 14.55 14.513 0 35.712 0c8.523 0 13.91 1.847 16.223 3.057l-2.123 7.227C46.454 8.66 41.701 7.418 36.03 7.418c-16.034 0-26.681 10.284-26.681 28.337 0 16.81 9.633 27.636 26.269 27.636 5.386 0 10.868-1.115 14.417-2.866l1.806 7.068zM106.216 10.22c-3.359-1.624-8.207-2.865-13.499-2.865-15.527 0-24.97 10.602-26.364 23.847h35.11v7.132H66.448c.412 13.85 10.362 25.184 25.984 25.184 5.26 0 10.235-1.019 14.196-2.738l1.616 6.845C104.885 69.25 98.896 71 90.784 71c-19.36 0-33.969-13.15-33.969-35.373C56.815 16.27 70.22.064 92.432.064c8.619 0 13.499 2.037 15.939 3.247l-2.155 6.91zM119.303 2.07c3.866-.828 9.949-1.433 16.129-1.433 8.84 0 14.512 1.528 18.758 4.998 3.549 2.643 5.672 6.718 5.672 12.13 0 6.623-4.372 12.45-11.565 15.092v.191c6.495 1.624 14.1 7.037 14.1 17.225 0 5.922-2.344 10.411-5.767 13.754-4.753 4.394-12.484 6.432-23.638 6.432-6.084 0-10.742-.414-13.689-.828V2.07zm8.809 28.113h8.017c9.316 0 14.798-4.903 14.798-11.526 0-8.055-6.084-11.207-15.02-11.207-4.056 0-6.401.319-7.795.605v22.128zm0 32.921c1.711.318 4.246.414 7.415.414 9.125 0 17.554-3.375 17.554-13.34 0-9.393-8.017-13.245-17.649-13.245h-7.32v26.171zM218.801 10.22c-3.359-1.624-8.207-2.865-13.499-2.865-15.527 0-24.97 10.602-26.364 23.847h35.11v7.132h-34.983c.412 13.85 10.362 25.184 25.983 25.184 5.261 0 10.235-1.019 14.196-2.738l1.616 6.845C217.502 69.25 211.513 71 203.401 71c-19.361 0-33.969-13.15-33.969-35.373 0-19.358 13.404-35.563 35.616-35.563 8.619 0 13.499 2.037 15.939 3.247l-2.186 6.91zM231.888 1.942c4.246-.7 9.854-1.337 16.952-1.337 8.714 0 15.115 2.038 19.171 5.699C271.75 9.552 274 14.55 274 20.664c0 6.208-1.838 11.11-5.26 14.677-4.658 4.998-12.263 7.545-20.914 7.545-2.63 0-5.07-.095-7.098-.604V69.79h-8.84V1.942zm8.84 33.144c1.933.51 4.373.7 7.32.7 10.647 0 17.143-5.19 17.143-14.677 0-9.074-6.401-13.468-16.129-13.468-3.866 0-6.781.319-8.302.7v26.745h-.032z" fill="#353535"/><path d="M51.84 67.593c-3.232 1.624-9.728 3.248-18.061 3.248C14.513 70.84 0 58.615 0 36.073 0 14.55 14.513 0 35.712 0c8.523 0 13.91 1.847 16.223 3.057l-2.123 7.227C46.454 8.66 41.701 7.418 36.03 7.418c-16.034 0-26.681 10.284-26.681 28.337 0 16.81 9.633 27.636 26.269 27.636 5.386 0 10.868-1.115 14.417-2.866l1.806 7.068zM106.216 10.22c-3.359-1.624-8.207-2.865-13.499-2.865-15.527 0-24.97 10.602-26.364 23.847h35.11v7.132H66.448c.412 13.85 10.362 25.184 25.984 25.184 5.26 0 10.235-1.019 14.196-2.738l1.616 6.845C104.885 69.25 98.896 71 90.784 71c-19.36 0-33.969-13.15-33.969-35.373C56.815 16.27 70.22.064 92.432.064c8.619 0 13.499 2.037 15.939 3.247l-2.155 6.91zM119.303 2.07c3.866-.828 9.949-1.433 16.129-1.433 8.84 0 14.512 1.528 18.758 4.998 3.549 2.643 5.672 6.718 5.672 12.13 0 6.623-4.372 12.45-11.565 15.092v.191c6.495 1.624 14.1 7.037 14.1 17.225 0 5.922-2.344 10.411-5.767 13.754-4.753 4.394-12.484 6.432-23.638 6.432-6.084 0-10.742-.414-13.689-.828V2.07zm8.809 28.113h8.017c9.316 0 14.798-4.903 14.798-11.526 0-8.055-6.084-11.207-15.02-11.207-4.056 0-6.401.319-7.795.605v22.128zm0 32.921c1.711.318 4.246.414 7.415.414 9.125 0 17.554-3.375 17.554-13.34 0-9.393-8.017-13.245-17.649-13.245h-7.32v26.171zM218.801 10.22c-3.359-1.624-8.207-2.865-13.499-2.865-15.527 0-24.97 10.602-26.364 23.847h35.11v7.132h-34.983c.412 13.85 10.362 25.184 25.983 25.184 5.261 0 10.235-1.019 14.196-2.738l1.616 6.845C217.502 69.25 211.513 71 203.401 71c-19.361 0-33.969-13.15-33.969-35.373 0-19.358 13.404-35.563 35.616-35.563 8.619 0 13.499 2.037 15.939 3.247l-2.186 6.91zM231.888 1.942c4.246-.7 9.854-1.337 16.952-1.337 8.714 0 15.115 2.038 19.171 5.699C271.75 9.552 274 14.55 274 20.664c0 6.208-1.838 11.11-5.26 14.677-4.658 4.998-12.263 7.545-20.914 7.545-2.63 0-5.07-.095-7.098-.604V69.79h-8.84V1.942zm8.84 33.144c1.933.51 4.373.7 7.32.7 10.647 0 17.143-5.19 17.143-14.677 0-9.074-6.401-13.468-16.129-13.468-3.866 0-6.781.319-8.302.7v26.745h-.032z" fill="#353535"/></svg>