<svg width="20" height="16" fill="none" xmlns="http://www.w3.org/2000/svg"><path d="M6.438 16A11.421 11.421 0 0017.929 4.508V3.98a8.413 8.413 0 002.005-2.085 8.334 8.334 0 01-2.318.635 4.081 4.081 0 001.79-2.237 7.956 7.956 0 01-2.56.984 4.045 4.045 0 00-6.891 3.678A11.447 11.447 0 011.63.74a4.036 4.036 0 001.253 5.37 4 4 0 01-1.79-.501v.045a4.054 4.054 0 003.178 3.982 4.054 4.054 0 01-1.79.072 4.036 4.036 0 003.74 2.765 8.1 8.1 0 01-5.02 1.79c-.32-.009-.64-.036-.958-.08 1.85 1.178 4 1.8 6.194 1.79" fill="#fff"/></svg>