<svg width="28" height="16" fill="none" xmlns="http://www.w3.org/2000/svg"><path d="M26.626 1.084c.189-.626 0-1.084-.89-1.084h-2.948c-.75 0-1.093.397-1.28.832 0 0-1.5 3.655-3.624 6.025-.685.69-.998.908-1.372.908-.187 0-.459-.218-.459-.843V1.084c0-.75-.216-1.084-.841-1.084h-4.633c-.467 0-.75.347-.75.678 0 .71 1.062.873 1.171 2.874v4.34c0 .95-.17 1.123-.547 1.123-.999 0-3.43-3.669-4.872-7.868C5.301.33 5.017 0 4.264 0H1.317C.474.001.307.398.307.833c0 .783.998 4.654 4.652 9.775C7.395 14.104 10.824 16 13.949 16c1.872 0 2.103-.42 2.103-1.147V12.21c0-.841.179-1.01.772-1.01.435 0 1.185.22 2.934 1.904C21.756 15.102 22.087 16 23.21 16h2.947c.841 0 1.262-.421 1.02-1.252-.265-.827-1.219-2.03-2.485-3.453-.689-.812-1.717-1.686-2.03-2.123-.437-.563-.31-.812 0-1.312.001.001 3.592-5.056 3.965-6.775z" fill="#fff"/></svg>