<svg width="40" height="34" fill="none" xmlns="http://www.w3.org/2000/svg"><path d="M20.227 32.054l-.44-24.57c-3.453-3.402-9.714-5.23-14.558-5.043M33.886 2.152A25.46 25.46 0 0020.312 7.79M33.3 3.529a326.905 326.905 0 00-.372 20.53 25.108 25.108 0 00-12.565 6.592M19.863 30.745a21.301 21.301 0 00-12.937-6.617" stroke="#fff" stroke-width="2.46" stroke-miterlimit="10"/><path d="M6.298 2.73c.16 2.212.322 4.423.347 6.634 0 1.54 0 3.087-.067 4.635l-.213 7.297-.101 3.521M11.304 10.477c1.63.1 3.173.772 4.36 1.897M11.472 17.656l5.166 1.574M28.542 11.014a5.003 5.003 0 00-4.318 2.33M28.737 17.937a9.096 9.096 0 00-3.071.944c-.64.383-1.175.92-1.553 1.565M1.547 29.8V7.416a9.995 9.995 0 014.666 1.658M38.044 28.805a29.019 29.019 0 00-17.816 2.798 24.356 24.356 0 00-17.561-3.087M38.45 7.543v22.538M33.769 8.437c1.272-.714 4.326-1.02 5.777-.85" stroke="#fff" stroke-width="2.46" stroke-miterlimit="10"/></svg>