<svg width="42" height="38" fill="none" xmlns="http://www.w3.org/2000/svg"><g clip-path="url(#clip0)" stroke="#fff" stroke-width="2.46" stroke-miterlimit="10"><path d="M11.273 21.164l5.603.271M11.754 24.918a62.012 62.012 0 0110.322.327M17.67 11.096a10.01 10.01 0 012.551-5.77 9.811 9.811 0 015.471-3.054 9.745 9.745 0 016.14 1.183 9.916 9.916 0 014.198 4.684c1.237 3.037.677 6.919-1.813 9.031l3.263 2.926c-1.647-.24-3.27-.797-4.94-.797h-4.153"/><path d="M7.656 33.95l12.11.135c4.728.056 7.675-6.218 7.88-10.992.205-4.775-2.923-9.566-7.454-10.953-4.53-1.386-9.88 1.045-12.315 5.23-2.435 4.184-2.017 9.724.567 13.797l-3.766 3.739c1.292-.303 1.694-.654 2.978-.957z"/></g><defs><clipPath id="clip0"><path fill="#fff" transform="translate(.856 .965)" d="M0 0h40.358v36.053H0z"/></clipPath></defs></svg>