<svg width="40" height="39" fill="none" xmlns="http://www.w3.org/2000/svg"><path d="M5.813 7.244C4.34 10.51 2.841 13.843 2.44 17.412a17.58 17.58 0 006.363 15.425 17.662 17.662 0 0016.447 2.89 17.679 17.679 0 007.18-4.76 17.648 17.648 0 004.073-7.584 17.24 17.24 0 00.261-6.563 16.89 16.89 0 00-5.69-10.273 16.931 16.931 0 00-11.019-4.09 10.667 10.667 0 01-.165 5.022M12.158 12.468l8.516 7.303M29.686 20.938l3.443.418M20.203 29.46a3.894 3.894 0 01.244 3.029M6.563 19.65h2.615" stroke="#fff" stroke-width="2.46" stroke-miterlimit="10"/></svg>