<svg width="30" height="38" fill="none" xmlns="http://www.w3.org/2000/svg"><path d="M9.495 1.302c0 .279-.05.566-.076.82V4.09c.048.495.265.96.615 1.322.351.362.816.601 1.323.679h7.887c.508-.045.98-.267 1.332-.624a2.01 2.01 0 00.58-1.32v-2.91" stroke="#fff" stroke-width="2" stroke-miterlimit="10"/><path d="M1.27 1.433l.846-.065h26.657V37.17" stroke="#fff" stroke-width="2" stroke-miterlimit="10"/><path d="M27.927 36.842c-.669 0-1.337.066-2.006.066H1.6L1.27 1.301M5.61 18.268H24.72M5.543 22.729h19.464M5.95 27.133h18.972M5.679 31.405h9.156M8.217 15.349v2.771M12.762 10.175v8.134M17.307 13.988l.135.262v3.436M22.045 11.987l.068.82v5.371" stroke="#fff" stroke-width="2" stroke-miterlimit="10"/></svg>