<svg width="46" height="36" fill="none" xmlns="http://www.w3.org/2000/svg"><path d="M9.836 12.871L21.842 29.85l-7.211 4.216L7.71 22.323c-.61-1.038-3.344-4.349-3.091-5.49.253-1.141 4.224-3.226 5.217-3.961zM15.586 18.616l6.397-3.103c1.301-.642 3.67-1.359 4.12-2.972.656-2.32-4.682-5.659-2.65-7.63.506-.481 1.648-.623 2.285-.943 1.19-.595 2.313-1.396 3.437-2.085A110.255 110.255 0 0041.538 18.72l-7.39 5.216-7.164-11.32M19.07 23.52a20.5 20.5 0 008.58-5.735M32.706 4.59l3.26-2.453 7.576 10.423-3.924 3.16M5.06 20.984l-3.044 2.858 7.09 9.432 2.584-1.887" stroke="#fff" stroke-width="2.46" stroke-miterlimit="10"/></svg>