<svg width="48" height="21" fill="none" xmlns="http://www.w3.org/2000/svg"><path d="M8.86 2.421a14.32 14.32 0 014.595-.135c1.328.074 2.643.303 3.916.683a6.418 6.418 0 013.218 2.228 5.894 5.894 0 01.4 5.678 10.212 10.212 0 01-3.962 4.322c-2.24 1.455-5.122 2.345-7.587 1.312a8.433 8.433 0 01-2.801-2.112 9.725 9.725 0 01-2.72-4.86 6.352 6.352 0 011.076-4.51A6.456 6.456 0 018.86 2.422v0zM30.47 2.978a12.211 12.211 0 015.629-.728c1.613.08 3.189.513 4.614 1.267.703.368 1.32.878 1.812 1.497a5.622 5.622 0 011.043 2.097 7.4 7.4 0 01-.906 4.492 9.885 9.885 0 01-2.72 3.746 7.825 7.825 0 01-7.343.943 11.68 11.68 0 01-5.665-4.94c-.834-1.357-1.704-3.45-.698-4.951a10.858 10.858 0 014.234-3.423v0zM25.483 9.653h-3.725M44.067 9.519h3.028M.646 9.6h2.575M7.717 17.056l-1.813 2.696M39.309 16.454l2.719 2.956" stroke="#fff" stroke-width="2.46" stroke-miterlimit="10"/></svg>