<svg width="33" height="34" fill="none" xmlns="http://www.w3.org/2000/svg"><g clip-path="url(#clip0)" fill="#fff"><path d="M16.5 13.404a3.158 3.158 0 100 6.317 3.158 3.158 0 000-6.317z"/><path d="M22.088 9.177c.411.151.784.394 1.09.708.314.306.556.678.708 1.09.13.334.284.835.326 1.759.046 1 .056 1.299.056 3.829 0 2.53-.01 2.83-.056 3.828-.042.924-.196 1.426-.326 1.76a2.932 2.932 0 01-.709 1.089 2.936 2.936 0 01-1.089.709c-.334.13-.836.284-1.76.326-.998.045-1.298.055-3.828.055s-2.83-.01-3.829-.055c-.923-.042-1.425-.197-1.759-.326a2.935 2.935 0 01-1.09-.71 2.934 2.934 0 01-.708-1.088c-.13-.334-.284-.836-.326-1.76-.046-.999-.055-1.298-.055-3.828s.01-2.83.055-3.829c.042-.924.196-1.425.326-1.76a3.138 3.138 0 011.798-1.797c.334-.13.836-.284 1.76-.327.999-.045 1.298-.055 3.828-.055s2.83.01 3.829.055c.923.042 1.425.197 1.759.327zm-10.453 7.386a4.865 4.865 0 109.73 0 4.865 4.865 0 00-9.73 0zm8.786-5.058a1.137 1.137 0 102.274 0 1.137 1.137 0 00-2.274 0z"/><path d="M16.5 33.063c-9.111 0-16.5-7.39-16.5-16.5C0 7.45 7.389.063 16.5.063S33 7.45 33 16.563c0 9.11-7.389 16.5-16.5 16.5zm9.418-20.407c-.046-1.008-.207-1.697-.44-2.3a4.845 4.845 0 00-2.772-2.77c-.602-.235-1.291-.395-2.3-.441-1.01-.046-1.333-.057-3.906-.057-2.573 0-2.896.011-3.906.057-1.009.046-1.697.206-2.3.44a4.642 4.642 0 00-1.678 1.093 4.643 4.643 0 00-1.093 1.678c-.234.603-.394 1.292-.44 2.3-.047 1.01-.058 1.333-.058 3.906 0 2.574.011 2.896.058 3.907.045 1.008.205 1.697.44 2.3a4.642 4.642 0 001.093 1.678 4.64 4.64 0 001.678 1.093c.603.234 1.291.394 2.3.44 1.01.046 1.333.057 3.906.057 2.573 0 2.896-.011 3.906-.057 1.009-.046 1.697-.206 2.3-.44a4.646 4.646 0 001.678-1.093 4.643 4.643 0 001.093-1.678c.235-.603.395-1.292.44-2.3.047-1.01.058-1.333.058-3.907 0-2.573-.011-2.895-.058-3.906z"/></g><defs><clipPath id="clip0"><path fill="#fff" transform="matrix(0 -1 -1 0 33 33.063)" d="M0 0h33v33H0z"/></clipPath></defs></svg>