<svg width="41" height="41" fill="none" xmlns="http://www.w3.org/2000/svg"><path d="M18.201 7.798a3.02 3.02 0 001.084.793c.415.178.864.26 1.314.24.322.002.64-.067.933-.202.292-.135.552-.334.762-.581.272-.411.409-.899.39-1.394 0-1.582-1.483-3.371-3.186-2.95-.404.116-.773.33-1.075.626a2.587 2.587 0 00-.656 1.068 2.618 2.618 0 00.434 2.4v0z" stroke="#fff" stroke-width="2.46" stroke-miterlimit="10"/><path d="M20.158.47v2.254" stroke="#fff" stroke-width="5" stroke-miterlimit="10"/><path d="M20.218 9.407l.068.482v23.635M15.938 33.48l8.668.052" stroke="#fff" stroke-width="2.46" stroke-miterlimit="10"/><path d="M24.072 32.844a24.16 24.16 0 005.38 6.141l-16.793.292c1.229-1.97 2.762-4.3 3.99-6.295M17.134 7.669c-2.669.937-5.82 2.322-8.473 3.26M23.42 7.266c2.738 1.1 6.288 2.812 9.024 3.913M9.398 10.791c-2.397 3.768-5.676 7.466-8.083 11.233M16.523 22.197c-1.889-3.44-4.998-7.311-6.88-10.717" stroke="#fff" stroke-width="2.46" stroke-miterlimit="10"/><path d="M1.357 21.654a6.889 6.889 0 00.847 4.163 8.029 8.029 0 002.66 2.391 8.878 8.878 0 003.466 1.256c.915.1 1.841.012 2.723-.257a6.881 6.881 0 002.412-1.308 7.688 7.688 0 002.669-4.997 59.114 59.114 0 01-14.32-.508M31.02 11.703l-5.084 10.321M31.587 11.178c1.415 4 5.177 6.752 6.778 10.682M39.755 22.755c-4.296-.998-11.608-1.496-15.954-.791M24.606 22.549c1.009 1.72 2.195 4.016 3.711 5.28a5.903 5.903 0 002.572 1.368c.955.233 1.952.221 2.902-.034a5.848 5.848 0 002.788-2.322 18.102 18.102 0 001.584-3.338" stroke="#fff" stroke-width="2.46" stroke-miterlimit="10"/></svg>