<svg width="132" height="62" fill="none" xmlns="http://www.w3.org/2000/svg"><path fill-rule="evenodd" clip-rule="evenodd" d="M65.73 60.283c-2.206 0-3.794-.688-4.765-2.062-.971-1.374-1.457-3.38-1.457-6.016v-7.591c-.016-1.163.09-2.325.317-3.465a7.3 7.3 0 011.062-2.552 4.563 4.563 0 012.058-1.646 8.331 8.331 0 013.206-.546c2.305 0 3.961.564 4.968 1.694 1.007 1.129 1.51 2.841 1.51 5.138v1.138h-4.061v-1.21c0-.514 0-.935-.033-1.267a5.52 5.52 0 00-.167-.988 1.834 1.834 0 00-.398-.777 1.932 1.932 0 00-.691-.436 3.01 3.01 0 00-1.068-.168 2.725 2.725 0 00-.85.12 2.297 2.297 0 00-.63.299c-.18.13-.327.301-.428.498-.11.2-.2.408-.27.625-.07.256-.116.518-.137.783-.036.316-.054.597-.063.839-.009.242-.015.562-.015.947v9.401c0 1.406.173 2.435.518 3.086.347.648 1.01.974 1.986.974.442.012.88-.091 1.27-.299.352-.199.632-.503.802-.869.206-.422.344-.874.41-1.338a11.63 11.63 0 00.12-1.817v-1.89h-2.516v-2.749h6.347v11.836h-2.754l-.3-2.357c-.713 1.778-2.037 2.667-3.972 2.665zm56.891-13.396h1.363c1.197 0 2.013-.233 2.435-.71.422-.479.634-1.342.634-2.606a11.692 11.692 0 00-.087-1.673 2.581 2.581 0 00-.391-1.075 1.574 1.574 0 00-.925-.666 5.813 5.813 0 00-1.651-.182h-1.378v6.912zm-4.254 13.396V36.98h6.73c3.978 0 5.966 2.205 5.964 6.614 0 2.169-.541 3.752-1.633 4.762-1.092 1.01-2.623 1.509-4.6 1.509h-2.195v10.417h-4.266zm-12.63-14.041c.525-.792.952-1.645 1.274-2.54a7.967 7.967 0 00.58-2.804 1.53 1.53 0 00-.416-1.123 1.493 1.493 0 00-1.1-.422 1.244 1.244 0 00-1.11.618 2.738 2.738 0 00-.395 1.518c0 .176 0 .359.021.54a5 5 0 00.075.598c.039.206.072.395.107.562.036.167.081.364.147.597.066.233.117.404.156.544.038.14.095.32.176.562.081.242.135.397.168.484l.179.48c.087.237.129.35.138.389v-.003zm-.437 11.053c1.005 0 1.869-.46 2.59-1.392-1.932-3.304-2.929-5.041-2.991-5.213a6.886 6.886 0 00-.912 1.927 7.043 7.043 0 00-.341 2.136c-.024.638.127 1.27.437 1.828a1.366 1.366 0 001.217.723v-.009zm-.042 2.943c-1.558 0-2.803-.496-3.739-1.479-.936-.983-1.396-2.273-1.396-3.869a8.073 8.073 0 01.927-3.808 11.5 11.5 0 012.378-3.12 42.468 42.468 0 00-.76-1.451 33.258 33.258 0 01-.835-1.628 10.125 10.125 0 01-.559-1.53 6.48 6.48 0 01-.266-1.771 5.325 5.325 0 011.358-3.752c.897-.98 2.111-1.47 3.628-1.47a5.353 5.353 0 013.64 1.258 4.264 4.264 0 011.45 3.381c0 .721-.116 1.437-.344 2.121a7.895 7.895 0 01-1.013 1.987 23.264 23.264 0 01-1.197 1.571c-.365.424-.807.896-1.322 1.437-.096.096-.167.161-.209.21l3.012 5.105c.412-.835.716-2.368.912-4.6h3.29a13.253 13.253 0 01-1.998 6.903c.25.293.554.535.897.71.353.204.751.317 1.158.33v3.432a2.564 2.564 0 01-1.349-.054 4.788 4.788 0 01-.652-.23 3.538 3.538 0 01-.679-.427l-.55-.41a14.66 14.66 0 01-.569-.537c-.293-.287-.454-.436-.469-.454a5.384 5.384 0 01-2.01 1.58 6.432 6.432 0 01-2.734.574v-.01zM76.09 36.664h4.188v23.302H76.09V36.664zM24.203 17.031l.442-.188.09-.035-4.83-13.252a1.11 1.11 0 011.52-1.385c.267.125.473.351.573.629l4.846 13.314.428-.107.116-.024L24.9 1.802a1.11 1.11 0 01.903-1.288 1.114 1.114 0 011.29.903l2.503 14.199.257-.024.299-.021V1.07A1.113 1.113 0 0131.266.013 1.116 1.116 0 0132.38 1.07v21.163h-1.453a11.515 11.515 0 00-6.491 2.295 11.48 11.48 0 00-.272 18.168l.837.672h.033l-.05.14a5.821 5.821 0 001.812 6.353 5.835 5.835 0 006.45.659 5.835 5.835 0 002.846-3.439 5.82 5.82 0 00-.443-4.424 5.84 5.84 0 00-9.34-1.303l-.135-.13-.799-.768c-.113-.111-.221-.219-.323-.326l-.056-.063-.273-.266.021-.02a8.415 8.415 0 01-1.956-5.396 8.385 8.385 0 012.686-6.148H23.44v-2.213h11.743a3.292 3.292 0 013.06 3.27v4.075c.409.32.796.667 1.157 1.04a10.884 10.884 0 012.369 3.728 4.647 4.647 0 003.547-3.408l-.036-.036a2.123 2.123 0 010-2.987 2.128 2.128 0 013.006 0 2.127 2.127 0 01-.837 3.519V46.14a1.442 1.442 0 01.646.67 11.14 11.14 0 014.27 1.389l-.735 1.111a9.905 9.905 0 00-3.598-1.183c-.065.11-.144.21-.236.299a1.442 1.442 0 01-.362.263v2.563H46.1v-2.563a1.423 1.423 0 01-.36-.263l-.044-.048a1.52 1.52 0 01-.191-.263 9.942 9.942 0 00-3.59 1.195l-.741-1.111a11.32 11.32 0 012.64-1.094c.54-.14 1.089-.24 1.643-.298.076-.152.177-.29.299-.407.105-.105.226-.194.359-.262V41.16a7.582 7.582 0 01-3.91 3.584 10.554 10.554 0 01-1.704 3.8 12.18 12.18 0 01-4.071 3.537 6.077 6.077 0 00-.203 2.37c.179 1.54.714 3.285 2.437 3.662v2.154a10.65 10.65 0 01-1.235 0c-5.728-.32-6.88-5.228-7.086-6.823a8.3 8.3 0 01-1.046-.087 5.548 5.548 0 01-.934 4.7h2.22v2.225H9.398a3.37 3.37 0 01-3.345-2.912A3.36 3.36 0 018.5 53.675c.144-.04.29-.071.437-.093.298-.03.598-.04.897-.03h1.137a1.69 1.69 0 001.121-.487 1.66 1.66 0 000-2.35 1.67 1.67 0 00-1.178-.482 2.15 2.15 0 00-.221 0 1.397 1.397 0 00-.222.042c-.26.072-.498.206-.694.391a1.627 1.627 0 00-.338.442 3.805 3.805 0 01-.975 1.494 3.965 3.965 0 01-2.76 1.067c-1.585-.018-2.563-1.001-3.634-2.091-.3-.3-.622-.628-.945-.897L0 49.761l1.196-.842c.379-.289.738-.601 1.077-.935 1.029-.971 2.046-1.936 3.55-1.915a3.93 3.93 0 012.722 1.135c.335.333.604.725.796 1.156a4.056 4.056 0 011.57-.338 3.89 3.89 0 013.885 3.886 3.881 3.881 0 01-3.705 3.876h-.392a14.16 14.16 0 00-1.466 0 1.143 1.143 0 00-.811 1.756c.132.202.325.357.55.442.108.043.22.07.336.078H15.329v-5.82a8.856 8.856 0 012.949-6.598l.087-.078a18.713 18.713 0 01-.952-1.09l-3.66 3.068a1.113 1.113 0 01-1.786-.957 1.11 1.11 0 01.359-.746l3.816-3.197a19.138 19.138 0 01-.526-.917l-4.83 2.784a1.11 1.11 0 01-1.453-1.637c.094-.115.21-.21.343-.28l5.016-2.895c-.081-.21-.156-.419-.228-.63-.036-.105-.072-.21-.104-.317l-6.078 2.21a1.115 1.115 0 01-1.425-.667 1.11 1.11 0 01.668-1.424l6.281-2.288a25.346 25.346 0 01-.107-.634v-.035l-.036-.263-7.307 1.296a1.115 1.115 0 01-1.288-.903 1.11 1.11 0 01.905-1.286l7.543-1.33v-.08c0-.254 0-.523.021-.801H5.115a1.116 1.116 0 01-.752-1.88c.197-.207.466-.33.752-.346h8.673c.036-.212.078-.43.126-.645l.033-.161-9.296-1.628a1.114 1.114 0 01-.958-1.295 1.11 1.11 0 011.34-.892l9.521 1.676c.072-.2.147-.398.224-.598l.054-.128-9.807-3.567a1.115 1.115 0 01-.669-1.424 1.112 1.112 0 011.426-.667l10.02 3.641.298-.531.054-.09-9.87-5.676a1.105 1.105 0 01.694-2.056c.144.019.284.066.41.138l10.061 5.793c.126-.159.252-.3.377-.454l.057-.066-9.389-7.875a1.11 1.11 0 011.427-1.703l9.526 7.983.407-.353.072-.057-8.375-9.963a1.11 1.11 0 01.958-1.783c.286.02.553.147.747.358l8.458 10.068c.144-.093.3-.182.437-.272l.072-.045-6.822-11.8a1.108 1.108 0 011.248-1.628c.284.076.527.262.675.517l6.879 11.896zm-4.738 41.026a5.548 5.548 0 013.718-8.828h.015c-.3-.152-.583-.298-.846-.46-.264-.161-.524-.313-.787-.487a.638.638 0 01-.114-.068 16.608 16.608 0 01-1.346-1.019l-.116-.096c-.072.06-.144.123-.216.189a6.586 6.586 0 00-2.201 4.953v5.819l1.893-.003zm25.723-19.301a7.462 7.462 0 01-2.866 1.53c.099.605.148 1.217.147 1.83v.054a6.274 6.274 0 002.73-3.42l-.011.006zm2.132-6.124a.802.802 0 00-1.122 0 .794.794 0 001.125 1.12.8.8 0 00.003-1.12h-.006zm2.89 21.21h2.814l-1.406-2.115-1.409 2.115zm3.02 1.335h-3.206a2.874 2.874 0 003.227 0h-.02zm-4.618-1.335l2.45-3.686.556-.837.553.837 2.453 3.689h.807a3.283 3.283 0 01-1.217 2.252 4.157 4.157 0 01-5.195 0 3.287 3.287 0 01-1.217-2.258l.81.003zm-8.12 0h2.817L41.9 51.727l-1.408 2.115zm3.02 1.335H40.3a2.867 2.867 0 003.225 0h-.012zm-4.617-1.335l2.455-3.695.556-.837.557.837 2.45 3.686h.807a3.284 3.284 0 01-1.215 2.255 4.16 4.16 0 01-5.198 0 3.286 3.286 0 01-1.214-2.255l.801.009zm-18.4-9.261a14.885 14.885 0 001.971 1.658 8.1 8.1 0 01.041-1.975 13.699 13.699 0 01.217-21.202 13.74 13.74 0 017.395-2.971v-2.28h-.11c-.348.03-.686.075-1.012.129h-.062a17.141 17.141 0 00-2.336.547c-.36.113-.733.25-1.13.412a13.986 13.986 0 00-2.18 1.096 17.336 17.336 0 00-2.02 1.443c-.29.245-.598.529-.897.83-.3.302-.599.598-.862.92-.263.323-.553.67-.793.998a16.398 16.398 0 00-1.34 2.202c-.185.37-.376.795-.54 1.195-.165.4-.3.789-.429 1.243a20.28 20.28 0 00-.335 1.293c-.09.421-.161.87-.215 1.333a15.251 15.251 0 00-.12 1.888v.433c0 .11 0 .25.021.415v.018c.024.454.072.914.141 1.383v.036c.072.474.158.925.26 1.353a15.775 15.775 0 00.918 2.7c.189.434.413.867.658 1.303a15.48 15.48 0 002.677 3.49l.081.11zm5.763 12.508a3.33 3.33 0 00-2.357-5.676 3.293 3.293 0 00-2.653 1.312 3.328 3.328 0 00.472 4.51 3.337 3.337 0 004.538-.14v-.006zm8.114-11.678a3.88 3.88 0 01-2.4 3.593 3.893 3.893 0 01-4.24-.844 3.883 3.883 0 012.232-6.593 3.891 3.891 0 013.266 1.1 3.882 3.882 0 011.154 2.73l-.012.014zm-2.551 1.342a1.894 1.894 0 00-1.594-3.22 2.087 2.087 0 00-.246.047 1.926 1.926 0 00-1.008.684 1.895 1.895 0 001.578 3.035 1.9 1.9 0 001.276-.546h-.006zm3.14 10.545a5.875 5.875 0 01-.954-2.584 8.097 8.097 0 01.027-2.091c-.478.237-.979.424-1.495.559.137.821.583 2.945 2.434 4.101l-.012.015zM26.476 38.43a8.148 8.148 0 012.004-.81 8.055 8.055 0 014.37.102l.078.024a8.05 8.05 0 014.688 3.935 8.034 8.034 0 01.56 6.09l-.023.081-.036.108c.196-.221.381-.453.553-.693a8.67 8.67 0 001.573-5.148 8.834 8.834 0 00-2.458-6.169 8.217 8.217 0 00-5.5-2.518h-1.89a1.114 1.114 0 01-1.113-1.111 1.11 1.11 0 011.112-1.111h4.63a1.116 1.116 0 01.97.561v-2.476a1.048 1.048 0 00-.3-.747 1.066 1.066 0 00-.75-.299h-2.008a2.075 2.075 0 01-1.305 1.872 2.081 2.081 0 01-2.239-.456 2.09 2.09 0 01-.556-1.004 6.204 6.204 0 00-3.852 5.745 6.15 6.15 0 001.441 3.98l.048.059.003-.015zm3.649-10.18a.74.74 0 001.265.46.752.752 0 00.215-.473h-1.43l-.05.012zM3.478 49.847l.162.164c.742.744 1.415 1.422 2.094 1.431.45.007.886-.161 1.214-.469a1.557 1.557 0 00.497-1.105 1.54 1.54 0 00-.461-1.112 1.712 1.712 0 00-1.196-.492c-.599 0-1.308.645-2.007 1.305-.102.09-.204.182-.303.278zm3.99 21.112a1.838 1.838 0 01-.741.134 1.861 1.861 0 01-.745-.134 1.047 1.047 0 01-.482-.395 1.758 1.758 0 01-.25-.597 3.644 3.644 0 01-.076-.795v-.54h-.613v2.39H3.335v-5.608H4.56v2.306h.598v-.475c-.004-.267.021-.533.075-.794.045-.214.13-.417.251-.598.118-.175.286-.312.482-.391a2.169 2.169 0 011.495 0c.196.08.363.216.482.391.123.18.21.384.254.598.054.26.08.525.075.791v1.927c.004.267-.02.533-.075.795a1.705 1.705 0 01-.254.597 1.062 1.062 0 01-.476.398zm-.741-.741a.38.38 0 00.18-.042.299.299 0 00.116-.099.36.36 0 00.066-.152c.013-.058.02-.117.024-.176a1.889 1.889 0 000-.198v-2.85c0-.044 0-.095-.018-.149a.498.498 0 00-.111-.245.257.257 0 00-.108-.075.49.49 0 00-.155-.02.383.383 0 00-.183.038.299.299 0 00-.116.093.433.433 0 00-.063.15.836.836 0 00-.03.176V69.555a1.932 1.932 0 000 .248c.008.07.024.138.048.204.019.065.06.122.116.16.071.04.153.058.234.052zm2.3.797v-5.601h1.872a1.394 1.394 0 011.11.41c.27.343.402.774.37 1.21.01.194-.005.39-.041.582-.03.149-.085.292-.165.42-.066.113-.15.214-.248.3a1.06 1.06 0 01-.332.185 2.157 2.157 0 01-.386.098 3.312 3.312 0 01-.44.027h-.487v2.39l-1.253-.02zm1.238-3.247h.395a.496.496 0 00.445-.17c.089-.18.127-.38.111-.58v-.245a.85.85 0 00-.042-.2.386.386 0 00-.09-.158.412.412 0 00-.164-.096.709.709 0 00-.254-.039h-.392l-.009 1.488zm2.692 3.247v-5.601h.98v3.196l1.425-3.196h.804v5.601h-.987v-3.259l-1.46 3.26h-.762zm3.768 1.21v-2.091h.168a.897.897 0 00.46-.373 2.76 2.76 0 00.333-.897 9.796 9.796 0 00.203-1.523l.146-1.936h2.612v4.714h.664v2.091h-.826l-.069-1.21H17.68l-.066 1.21-.889.015zm1.331-2.091h1.433V66.29h-.514l-.063 1.195c0 .275-.039.529-.066.756a6.962 6.962 0 01-.09.58 3.378 3.378 0 01-.248.759 1.056 1.056 0 01-.146.235 2.06 2.06 0 01-.15.177l-.156.143zm3.787.896v-5.616h.984v3.196l1.424-3.196h.804v5.601h-.999v-3.259l-1.456 3.26-.757.014zm6.167 0v-2.315a4.635 4.635 0 01-.655.054 1.95 1.95 0 01-.783-.153 1.278 1.278 0 01-.778-1.207v-1.98h1.217v1.977c-.001.083.005.165.018.246a.511.511 0 00.081.182c.05.066.123.112.204.131.117.03.237.045.358.042a2.14 2.14 0 00.338-.033V65.43h1.242v5.601H28.01zm2.094 0v-5.616h2.521v.845h-1.28v1.383h.975v.87h-.975v1.673h1.295v.84l-2.536.005zm4.705.078a2.268 2.268 0 01-.802-.129 1.196 1.196 0 01-.523-.385 1.679 1.679 0 01-.275-.597 3.149 3.149 0 01-.084-.777v-1.996a3.25 3.25 0 01.084-.791c.05-.216.144-.42.275-.598.134-.172.315-.304.52-.38.259-.089.531-.131.805-.125.262-.007.523.032.772.114.195.064.37.182.502.34.122.148.21.32.26.505.057.215.084.436.081.657v.496h-1.211v-.564-.2a1.254 1.254 0 00-.027-.174.373.373 0 00-.057-.161.333.333 0 00-.12-.096.488.488 0 00-.395 0 .345.345 0 00-.122.102.45.45 0 00-.066.161.961.961 0 00-.033.189v2.819c-.01.177.02.354.087.517a.34.34 0 00.335.177.37.37 0 00.311-.14.496.496 0 00.063-.165c.013-.06.022-.12.027-.182V68.922h1.21v.487c.002.182-.015.364-.047.544a1.73 1.73 0 01-.161.457c-.074.14-.176.263-.3.361a1.356 1.356 0 01-.46.227c-.21.063-.43.096-.65.096v.015zm2.312-.078v-5.616h1.238v2.225h.117l.828-2.225h1.227l-1.017 2.629 1.052 2.972h-1.27l-.82-2.452h-.117v2.452l-1.238.015zm3.673 0l1.065-5.601h1.4l1.055 5.601H43.17l-.192-1.195h-.816l-.192 1.195h-1.175zm1.471-1.93h.599l-.3-2.168-.299 2.168zm2.261 1.93l1.074-2.494a1.363 1.363 0 01-.53-.57 1.88 1.88 0 01-.194-.87c-.004-.225.024-.45.084-.666.047-.173.128-.335.24-.475.107-.128.242-.23.394-.3.167-.08.344-.136.527-.166.218-.035.44-.05.66-.048h1.448v5.601h-1.238v-2.231h-.284l-.82 2.213-1.36.006zm2.289-3.116h.161v-1.66H46.8c-.515 0-.772.274-.772.83 0 .556.263.83.787.83zm5.74 3.286v-.827h-.321a1.554 1.554 0 01-1.017-.335 1.284 1.284 0 01-.463-1.045V67.32a1.287 1.287 0 01.457-1.037c.285-.23.645-.35 1.011-.337h.332v-.897h1.002v.897h.311c.373-.014.738.105 1.03.337a1.282 1.282 0 01.469 1.043v1.67a1.291 1.291 0 01-.464 1.042 1.461 1.461 0 01-.98.338 1.512 1.512 0 01-.198 0h-.168v.825h-1.002zm-.102-1.586h.101V66.72h-.113c-.395 0-.599.21-.599.628v1.697a.52.52 0 00.58.597l.03-.027zm1.22 0h.02a.52.52 0 00.562-.359.516.516 0 00.016-.238v-1.7a.551.551 0 00-.613-.63h-.102v2.91a.74.74 0 00.117.026v-.009zm2.45 1.392v-5.592h.98v3.196l1.424-3.196h.805v5.601h-.996v-3.259l-1.46 3.26-.753-.01zm4.058 0v-5.592h1.873a1.41 1.41 0 011.112.415c.268.344.399.775.368 1.21.005.194-.012.387-.05.577a1.39 1.39 0 01-.165.42 1.197 1.197 0 01-.252.3c-.098.081-.21.144-.331.185a2.157 2.157 0 01-.386.098c-.145.02-.291.028-.437.027h-.494v2.39l-1.238-.03zm1.238-3.247h.398a.5.5 0 00.446-.17c.086-.18.123-.38.108-.58v-.245a1.044 1.044 0 00-.042-.2.358.358 0 00-.093-.158.412.412 0 00-.164-.096.695.695 0 00-.252-.039h-.4v1.488zm2.662 3.247l.09-5.601h1.31l.64 3.208.688-3.208h1.265l.09 5.601h-.882l-.084-3.626-.745 3.626h-.628l-.778-3.65-.068 3.66-.898-.01zm4.624 0l1.06-5.592h1.402l1.056 5.601H71.08l-.191-1.195h-.826l-.188 1.195-1.17-.009zm1.472-1.93h.598l-.299-2.168-.299 2.168zm5.57 1.703l-1.356-1.625v-.397l1.355-1.622v1.093l-.688.729.688.726v1.096zm1.495 0l-1.355-1.625v-.397l1.355-1.622v1.093l-.688.729.688.726v1.096zm.709.236v-5.601h2.584v.914h-1.32v4.687h-1.264zm3.194 0v-5.601h.98v3.196l1.425-3.196h.804v5.601h-.996v-3.259l-1.46 3.26h-.753zm4.083 0v-5.601h1.24v2.261h.862v-2.261h1.277v5.601h-1.244v-2.452h-.861v2.452h-1.274zm6 0v-5.601h.98v3.196l1.424-3.196h.805v5.601h-.996v-3.259l-1.46 3.26h-.754zm5.838 0v-5.601h3.368v5.601H99.21V66.3h-.92v4.717h-1.224zm3.921 0l1.08-5.601h1.399l1.056 5.601h-1.142l-.195-1.195h-.819l-.189 1.195h-1.19zm1.471-1.93h.599l-.299-2.168-.3 2.168zm2.612 1.93v-5.601h1.869a1.408 1.408 0 011.113.415c.268.344.4.775.37 1.21.002.19-.018.38-.059.565a1.33 1.33 0 01-.162.42c-.067.113-.15.213-.248.3a1.04 1.04 0 01-.335.185 2.143 2.143 0 01-.386.098 3.271 3.271 0 01-.44.027h-.484v2.39l-1.238-.009zm1.238-3.247h.395a.495.495 0 00.445-.17c.087-.18.126-.38.111-.58v-.245a.981.981 0 00-.042-.2.357.357 0 00-.066-.152.422.422 0 00-.161-.096.724.724 0 00-.254-.039h-.392l-.036 1.482zm3.194 3.247V66.33h-.864v-.914h2.958v.914h-.853v4.687h-1.241zm2.596 0v-5.601h1.245v2.261h.861v-2.261h1.241v5.601h-1.241v-2.452h-.861v2.452h-1.245zm4.188 0v-5.601h2.521v.845h-1.283v1.383h.978v.87h-.978v1.673h1.295v.84l-2.533-.01zm3.095 0v-5.601h1.873a1.406 1.406 0 011.151.41c.268.344.399.774.368 1.21a2.72 2.72 0 01-.069.582 1.31 1.31 0 01-.167.42 1.037 1.037 0 01-.58.484 2.182 2.182 0 01-.386.1 3.288 3.288 0 01-.44.026h-.487v2.39l-1.263-.02zm1.239-3.247h.394a.504.504 0 00.449-.17c.086-.18.123-.38.108-.58v-.245a.86.86 0 00-.045-.2.336.336 0 00-.09-.158.41.41 0 00-.164-.096.707.707 0 00-.252-.039h-.394l-.006 1.488zm2.691 3.247v-5.601h1.242v2.363h.257c.451-.032.898.108 1.25.391a1.577 1.577 0 01.425 1.222c.002.175-.014.349-.048.52a1.657 1.657 0 01-.129.4c-.053.11-.124.211-.209.299-.081.08-.172.147-.272.2a1.502 1.502 0 01-.332.129 3.545 3.545 0 01-.79.084l-1.394-.007zm1.242-.818h.158a.558.558 0 00.491-.197.95.95 0 00.137-.577v-.057a.959.959 0 00-.149-.544.579.579 0 00-.494-.19h-.143v1.565zm2.392-4.78h1.245v5.601h-1.245v-5.601zm1.989 5.377V69.7l.712-.73-.661-.74v-1.093l1.376 1.622v.397l-1.427 1.64zm1.496 0V69.7l.706-.73-.655-.74v-1.093l1.373 1.622v.397l-1.424 1.64zm-46.56-10.82V36.673h2.943l5.71 13.199V36.673h3.52v23.302h-2.785l-5.784-13.867V59.98l-3.604-.006z" fill="#fff"/></svg>