<svg width="132" height="64" fill="none" xmlns="http://www.w3.org/2000/svg"><path fill-rule="evenodd" clip-rule="evenodd" d="M65.731 63.102c-2.205 0-3.793-.71-4.764-2.133-.971-1.423-1.457-3.499-1.457-6.228v-7.858c-.016-1.204.09-2.406.317-3.587a7.708 7.708 0 011.062-2.64 4.596 4.596 0 012.058-1.704 8.076 8.076 0 013.206-.566c2.305 0 3.961.584 4.968 1.753 1.007 1.169 1.51 2.942 1.51 5.319v1.178H68.57v-1.252c0-.532 0-.968-.033-1.312a5.891 5.891 0 00-.168-1.023 1.923 1.923 0 00-.397-.804 1.924 1.924 0 00-.691-.451 2.919 2.919 0 00-1.068-.174 2.64 2.64 0 00-.85.124c-.224.07-.437.173-.63.31-.18.134-.327.311-.428.516-.11.205-.2.422-.27.646-.07.265-.116.536-.137.81-.036.328-.054.619-.063.869-.009.25-.015.581-.015.98v9.732c0 1.455.173 2.52.518 3.194.347.671 1.01 1.008 1.986 1.008.442.012.88-.094 1.27-.31.352-.206.632-.52.802-.899.206-.437.344-.904.41-1.385.087-.623.127-1.252.12-1.88v-1.958H66.41v-2.845h6.347v12.252h-2.755l-.299-2.44c-.713 1.841-2.038 2.76-3.972 2.758zm56.892-13.865h1.363c1.197 0 2.013-.242 2.435-.736.422-.495.634-1.389.634-2.697.01-.578-.018-1.157-.087-1.732a2.731 2.731 0 00-.391-1.113 1.578 1.578 0 00-.925-.69 5.62 5.62 0 00-1.651-.188h-1.378v7.156zm-4.254 13.865v-24.12h6.73c3.978 0 5.966 2.283 5.964 6.847 0 2.245-.541 3.884-1.633 4.929-1.092 1.045-2.623 1.562-4.6 1.562h-2.196v10.782h-4.265zm-12.63-14.533a12.53 12.53 0 001.274-2.629 8.52 8.52 0 00.58-2.903 1.639 1.639 0 00-.416-1.163 1.49 1.49 0 00-.507-.335 1.452 1.452 0 00-.594-.101 1.21 1.21 0 00-.639.162 1.259 1.259 0 00-.47.478 2.91 2.91 0 00-.395 1.57c0 .183 0 .372.021.56.013.208.038.415.075.619.039.213.072.408.107.581.036.173.081.378.147.619.066.241.117.417.156.563a20.184 20.184 0 00.523 1.58c.087.244.129.362.138.402v-.003zm-.437 11.441c1.005 0 1.869-.476 2.59-1.44-1.932-3.421-2.929-5.22-2.991-5.397a7.211 7.211 0 00-.912 1.995 7.525 7.525 0 00-.341 2.21 3.72 3.72 0 00.437 1.893c.117.228.293.418.507.55.215.131.46.2.71.198v-.009zm-.042 3.046c-1.558 0-2.803-.513-3.739-1.53-.936-1.018-1.397-2.354-1.397-4.005a8.607 8.607 0 01.928-3.943 11.888 11.888 0 012.377-3.228 42.13 42.13 0 00-.759-1.503 34.894 34.894 0 01-.835-1.685 10.61 10.61 0 01-.559-1.584 6.885 6.885 0 01-.266-1.833 5.628 5.628 0 011.358-3.884c.897-1.014 2.111-1.522 3.628-1.522a5.24 5.24 0 013.64 1.302c.479.435.858.974 1.109 1.58.251.606.368 1.262.341 1.92 0 .747-.116 1.488-.344 2.196a8.252 8.252 0 01-1.014 2.057 23.69 23.69 0 01-1.196 1.626c-.365.44-.807.928-1.322 1.487-.096.1-.167.168-.209.217l3.012 5.285c.412-.864.716-2.452.912-4.762h3.29c-.017 2.526-.709 5-1.998 7.146.25.303.554.553.897.736.353.21.751.327 1.158.34v3.553a2.483 2.483 0 01-1.349-.056 4.68 4.68 0 01-.652-.238 3.523 3.523 0 01-.679-.442l-.551-.424c-.083-.074-.275-.26-.568-.556-.293-.297-.454-.452-.469-.47a5.426 5.426 0 01-2.01 1.636 6.248 6.248 0 01-2.734.593v-.009zM76.092 38.655h4.187v24.12h-4.187v-24.12zM24.205 18.332l.443-.195.09-.037-4.831-13.717c-.1-.287-.087-.603.039-.88.125-.276.352-.49.63-.593a1.08 1.08 0 01.85.04c.268.13.474.364.575.65l4.845 13.783.428-.111.116-.025-2.488-14.68c-.051-.3.015-.609.184-.859.17-.25.428-.42.719-.473.29-.053.59.016.832.191.241.175.406.442.457.743l2.503 14.698.258-.025.299-.022V1.81a1.17 1.17 0 01.346-.776c.207-.204.482-.317.768-.317.286 0 .56.113.768.317.207.203.331.481.346.776v21.906H30.93a11.27 11.27 0 00-6.491 2.377 11.89 11.89 0 00-4.016 5.782 12.28 12.28 0 00-.103 7.119 11.922 11.922 0 003.847 5.904l.837.696h.033l-.05.145a6.23 6.23 0 00.374 4.752c.358.7.847 1.32 1.438 1.825.59.505 1.271.884 2.004 1.117a5.655 5.655 0 004.446-.436 5.881 5.881 0 001.766-1.487 6.1 6.1 0 001.08-2.072 6.213 6.213 0 00-.443-4.58 5.88 5.88 0 00-3.44-2.922 5.65 5.65 0 00-3.165-.074 5.793 5.793 0 00-2.735 1.648l-.135-.136-.799-.795a11.141 11.141 0 01-.323-.337l-.057-.065-.272-.275.021-.022a8.898 8.898 0 01-1.956-5.585 8.88 8.88 0 011.717-5.257c.291-.397.615-.768.969-1.107h-2.034v-2.29h11.743c.79.058 1.533.409 2.093.989a3.46 3.46 0 01.966 2.396v4.218a11.326 11.326 0 013.526 4.935 4.598 4.598 0 002.264-1.238 4.84 4.84 0 001.284-2.29l-.036-.037a2.237 2.237 0 01-.614-1.546c0-.58.22-1.135.614-1.546.399-.412.94-.644 1.503-.644.564 0 1.104.232 1.503.644.256.265.442.594.54.955.099.361.107.742.023 1.107a2.227 2.227 0 01-.502.978 2.124 2.124 0 01-.898.602v11.3a1.446 1.446 0 01.646.692c1.503.174 2.956.664 4.27 1.438l-.735 1.15a9.72 9.72 0 00-3.598-1.224 1.439 1.439 0 01-.236.31 1.44 1.44 0 01-.362.271v2.653h-1.334v-2.653a1.425 1.425 0 01-.36-.272l-.044-.05a1.572 1.572 0 01-.191-.272c-1.262.171-2.481.591-3.59 1.237l-.741-1.15c.83-.491 1.718-.871 2.64-1.132.54-.145 1.089-.248 1.643-.309.075-.157.177-.299.299-.42.105-.11.226-.202.359-.273V43.31a7.687 7.687 0 01-3.91 3.71 11.112 11.112 0 01-1.704 3.934 12.315 12.315 0 01-4.071 3.661 6.5 6.5 0 00-.204 2.452c.18 1.596.715 3.402 2.438 3.791v2.23c-.411.025-.824.025-1.235 0-5.728-.33-6.88-5.412-7.086-7.063a8.02 8.02 0 01-1.047-.09c.206.832.229 1.7.067 2.542a5.846 5.846 0 01-1 2.323h2.22v2.303H9.4a3.304 3.304 0 01-2.22-.857 3.518 3.518 0 01-1.125-2.157 3.576 3.576 0 01.528-2.388 3.376 3.376 0 012.356-1.534 6.59 6.59 0 01.897-.03h1.137a1.664 1.664 0 001.121-.505c.155-.16.278-.349.362-.558a1.771 1.771 0 00-.362-1.875 1.64 1.64 0 00-1.178-.498 2.044 2.044 0 00-.221 0 1.348 1.348 0 00-.222.043 1.64 1.64 0 00-.694.405 1.679 1.679 0 00-.338.458 3.892 3.892 0 01-3.736 2.65c-1.584-.019-2.563-1.036-3.633-2.164-.3-.31-.622-.65-.945-.928L.002 52.21l1.196-.872c.379-.298.738-.622 1.077-.968 1.029-1.005 2.046-2.003 3.55-1.982a3.863 3.863 0 012.722 1.175c.335.345.604.75.796 1.197a3.754 3.754 0 011.056-.31c.17-.024.342-.037.514-.04.51.001 1.016.106 1.488.309.472.202.9.499 1.26.873a4.09 4.09 0 011.137 2.84 4.09 4.09 0 01-1.136 2.84 3.812 3.812 0 01-2.57 1.172h-.391a13.673 13.673 0 00-1.466 0 1.14 1.14 0 00-.745.43 1.212 1.212 0 00-.067 1.388c.133.21.326.37.552.458.107.045.22.072.335.08H15.33v-6.023c0-1.289.262-2.563.77-3.74a9.17 9.17 0 012.179-3.09l.086-.081a19.022 19.022 0 01-.652-.755l-.299-.374-3.66 3.176a1.087 1.087 0 01-1.53-.176 1.176 1.176 0 01.103-1.587l3.816-3.309a19.636 19.636 0 01-.335-.59c-.066-.118-.128-.238-.191-.359l-4.83 2.882a1.089 1.089 0 01-.858.142 1.095 1.095 0 01-.4-.196c-.12-.093-.22-.21-.294-.343a1.173 1.173 0 01.442-1.588l5.016-2.996a16.556 16.556 0 01-.332-.98l-6.078 2.288a1.08 1.08 0 01-.851-.04 1.138 1.138 0 01-.574-.652c-.1-.287-.087-.603.039-.88.125-.276.352-.49.63-.593l6.28-2.369c-.039-.22-.075-.439-.107-.655v-.037l-.036-.273-7.307 1.343a1.076 1.076 0 01-.831-.192 1.135 1.135 0 01-.3-.325 1.174 1.174 0 01-.147-.868 1.17 1.17 0 01.176-.41 1.13 1.13 0 01.314-.31c.123-.081.261-.136.405-.162l7.543-1.376v-.084c0-.263 0-.54.021-.828H5.117a1.1 1.1 0 01-.752-.358 1.175 1.175 0 01-.306-.794c0-.296.11-.58.306-.794a1.1 1.1 0 01.752-.358h8.673c.036-.22.078-.446.126-.668l.033-.167-9.296-1.685c-.15-.02-.294-.07-.424-.149a1.127 1.127 0 01-.333-.309 1.168 1.168 0 01-.201-.882c.026-.154.081-.3.164-.43a1.093 1.093 0 011.177-.494l9.52 1.735c.072-.206.147-.413.224-.619l.054-.133-9.807-3.692a1.107 1.107 0 01-.372-.232 1.182 1.182 0 01-.072-1.626c.098-.111.217-.202.35-.266a1.083 1.083 0 01.85-.04l10.02 3.77c.102-.19.204-.375.3-.551l.053-.093-9.87-5.875a1.12 1.12 0 01-.325-.294 1.16 1.16 0 01-.221-.846c.018-.15.065-.293.138-.424.072-.13.169-.244.284-.336a1.093 1.093 0 01.818-.229c.144.02.284.068.41.143l10.061 5.996c.126-.164.252-.309.377-.47l.057-.068-9.389-8.151a1.176 1.176 0 01-.102-1.586 1.086 1.086 0 011.528-.176l9.527 8.262.407-.365.072-.059-8.375-10.313a1.179 1.179 0 01.17-1.58 1.089 1.089 0 011.535.105l8.458 10.422c.144-.096.3-.19.437-.282l.072-.046-6.823-12.215a1.183 1.183 0 01-.111-.871c.076-.295.262-.546.517-.698a1.08 1.08 0 01.843-.116c.284.079.527.271.675.535l6.879 12.313zM19.467 60.8a5.85 5.85 0 01-1.04-2.553 5.929 5.929 0 01.235-2.759 5.768 5.768 0 011.457-2.325 5.51 5.51 0 013.066-1.501h.015c-.3-.158-.583-.31-.847-.476-.263-.167-.523-.325-.786-.504a.639.639 0 01-.114-.071c-.465-.328-.915-.68-1.346-1.055l-.116-.099a6.017 6.017 0 00-.216.195 6.812 6.812 0 00-1.634 2.319 7.014 7.014 0 00-.567 2.808v6.024l1.893-.003zm25.722-19.98a7.385 7.385 0 01-2.865 1.584c.099.626.148 1.26.147 1.895v.056a6.46 6.46 0 002.73-3.54l-.012.005zm2.133-6.339a.788.788 0 00-.865-.176.789.789 0 00-.257.176.84.84 0 00.035 1.127.78.78 0 001.09.032.843.843 0 00.23-.58.838.838 0 00-.227-.579h-.006zm2.89 21.955h2.814l-1.406-2.189-1.409 2.19zm3.02 1.383h-3.206a2.806 2.806 0 001.613.513c.576 0 1.138-.179 1.614-.513h-.02zm-4.618-1.383l2.45-3.815.556-.866.553.866 2.453 3.819h.808a3.486 3.486 0 01-.38 1.293c-.21.4-.494.753-.838 1.038a4.07 4.07 0 01-2.598.943 4.07 4.07 0 01-2.597-.943 3.377 3.377 0 01-.839-1.04 3.486 3.486 0 01-.379-1.298l.811.003zm-8.12 0h2.817l-1.409-2.189-1.408 2.19zm3.02 1.383h-3.212a2.8 2.8 0 001.612.513 2.8 2.8 0 001.612-.513h-.012zm-4.618-1.383l2.456-3.825.556-.866.557.866 2.45 3.816h.807c-.041.453-.17.894-.378 1.295a3.378 3.378 0 01-.837 1.04 4.073 4.073 0 01-2.599.943 4.073 4.073 0 01-2.599-.943 3.378 3.378 0 01-.836-1.04 3.485 3.485 0 01-.378-1.295l.801.01zm-18.4-9.586a14.926 14.926 0 001.971 1.717 8.671 8.671 0 01.042-2.044 14.246 14.246 0 01-4.36-6.9 14.657 14.657 0 01.08-8.24 14.22 14.22 0 014.497-6.806 13.487 13.487 0 017.395-3.077v-2.36h-.11c-.348.031-.686.078-1.012.133h-.063a16.616 16.616 0 00-2.336.566c-.358.118-.732.26-1.13.427a13.857 13.857 0 00-2.18 1.135 17.318 17.318 0 00-2.02 1.494 14.2 14.2 0 00-.897.86c-.299.311-.598.618-.861.951-.263.335-.553.693-.793 1.033a17.035 17.035 0 00-1.34 2.28c-.185.383-.376.822-.54 1.236-.165.415-.3.817-.429 1.287-.128.47-.245.903-.335 1.339-.09.436-.161.9-.215 1.379a16.427 16.427 0 00-.12 1.954v.449c0 .114 0 .26.021.43v.018c.024.47.072.946.14 1.432v.037c.073.49.16.957.261 1.4a16.685 16.685 0 00.918 2.795c.189.45.413.898.658 1.35.246.45.503.874.772 1.276a16.336 16.336 0 001.905 2.335l.081.114zm5.764 12.948a3.485 3.485 0 00.904-1.763 3.557 3.557 0 00-.192-1.986 3.426 3.426 0 00-1.224-1.543 3.258 3.258 0 00-1.845-.584 3.202 3.202 0 00-1.483.353c-.46.236-.861.58-1.17 1.005a3.533 3.533 0 00-.65 2.43 3.487 3.487 0 001.122 2.238 3.27 3.27 0 002.296.85 3.282 3.282 0 002.242-.994v-.006zm8.114-12.088c.001.796-.227 1.574-.654 2.236a3.92 3.92 0 01-1.746 1.482 3.77 3.77 0 01-2.248.23 3.85 3.85 0 01-1.992-1.103 4.053 4.053 0 01-1.003-1.797 4.151 4.151 0 01-.002-2.074c.175-.68.519-1.3.998-1.8a3.86 3.86 0 012.759-1.19c1.03 0 2.017.422 2.746 1.174a4.088 4.088 0 011.154 2.827l-.012.015zm-2.551 1.388c.266-.274.447-.623.52-1.004.074-.38.037-.775-.107-1.133a1.948 1.948 0 00-.699-.881 1.852 1.852 0 00-1.308-.315 2.031 2.031 0 00-.246.05 1.926 1.926 0 00-1.008.708 2.013 2.013 0 00.27 2.657c.362.326.829.498 1.308.483a1.87 1.87 0 001.276-.565h-.006zm3.14 10.916a6.215 6.215 0 01-.954-2.675 8.678 8.678 0 01.027-2.164 7.66 7.66 0 01-1.495.578c.137.85.583 3.049 2.434 4.246l-.012.015zm-8.485-19.53a7.995 7.995 0 012.004-.839 7.793 7.793 0 014.37.105l.078.025c2.02.667 3.705 2.13 4.688 4.073a8.578 8.578 0 01.56 6.305l-.023.083-.036.112c.196-.23.381-.469.553-.718a9.198 9.198 0 001.573-5.328 9.318 9.318 0 00-2.458-6.385 8.099 8.099 0 00-5.5-2.607h-1.89c-.296 0-.579-.121-.788-.337a1.17 1.17 0 01-.326-.813c0-.306.118-.598.326-.814.209-.215.492-.337.787-.337h4.63c.197 0 .39.054.56.156.17.102.312.249.41.426v-2.563a1.119 1.119 0 00-.3-.774 1.046 1.046 0 00-.75-.31h-2.008c-.01.42-.14.827-.372 1.172-.232.344-.557.61-.934.767-.376.156-.79.194-1.187.11a2.058 2.058 0 01-1.05-.582 2.186 2.186 0 01-.557-1.04 6.254 6.254 0 00-2.803 2.367 6.572 6.572 0 00-1.05 3.58 6.502 6.502 0 001.442 4.119l.048.062.003-.016zm3.649-10.54a.783.783 0 00.15.402.744.744 0 00.335.255.72.72 0 00.78-.18.792.792 0 00.216-.489h-1.43l-.051.013zM3.48 52.302l.162.17c.742.77 1.415 1.472 2.094 1.481a1.704 1.704 0 001.574-1.005c.086-.197.132-.409.136-.624a1.643 1.643 0 00-.117-.624 1.6 1.6 0 00-.343-.527 1.683 1.683 0 00-1.197-.51c-.598 0-1.307.668-2.006 1.352a8.858 8.858 0 00-.303.287zm3.99 21.853a1.784 1.784 0 01-.741.14 1.807 1.807 0 01-.745-.14 1.055 1.055 0 01-.482-.408 1.855 1.855 0 01-.25-.618 3.9 3.9 0 01-.076-.823v-.56h-.613v2.474H3.337v-5.804h1.226v2.387h.598v-.492c-.004-.276.021-.552.075-.822.045-.22.13-.43.251-.618.118-.182.286-.323.482-.406a2.099 2.099 0 011.495 0c.196.084.363.225.482.406.123.186.21.397.254.618.054.27.08.544.075.82v1.994a3.9 3.9 0 01-.075.822 1.797 1.797 0 01-.254.619 1.07 1.07 0 01-.476.411zm-.741-.767a.37.37 0 00.18-.043.302.302 0 00.116-.102.381.381 0 00.066-.158 1.1 1.1 0 00.023-.182 2.031 2.031 0 000-.204v-2.95c0-.047 0-.1-.017-.155a.528.528 0 00-.111-.254.257.257 0 00-.108-.077.474.474 0 00-.155-.021.371.371 0 00-.3.136.457.457 0 00-.062.154.894.894 0 00-.03.183V72.7a2.07 2.07 0 000 .257.955.955 0 00.048.21.31.31 0 00.116.167c.071.041.153.06.234.052zm2.3.826v-5.798H10.9c.204-.018.409.01.6.084.192.073.366.19.51.34.27.355.402.801.37 1.252.01.202-.005.404-.041.603a1.327 1.327 0 01-.165.436 1.049 1.049 0 01-.58.5c-.125.047-.254.081-.386.103a3.17 3.17 0 01-.44.028h-.487v2.474l-1.253-.022zm1.238-3.361h.395a.482.482 0 00.445-.177c.089-.186.127-.393.111-.6v-.253a.914.914 0 00-.042-.207.402.402 0 00-.09-.164.41.41 0 00-.164-.1.69.69 0 00-.254-.04h-.392l-.01 1.54zm2.692 3.361v-5.798h.98v3.309l1.425-3.31h.804v5.799h-.987v-3.374l-1.46 3.374h-.762zm3.768 1.252v-2.164h.168a.904.904 0 00.46-.387c.162-.287.275-.6.332-.927.108-.52.176-1.047.204-1.578l.147-2.003h2.61v4.88h.665v2.164h-.826l-.069-1.252h-2.736l-.066 1.252-.889.015zm1.331-2.164h1.433v-3.98h-.514l-.063 1.237c0 .284-.04.547-.066.782a7.404 7.404 0 01-.09.6 3.518 3.518 0 01-.248.785c-.038.088-.088.17-.147.245a2.096 2.096 0 01-.15.182l-.155.149zm3.787.927v-5.813h.984v3.309l1.424-3.31h.804v5.799h-.999v-3.374l-1.456 3.374-.757.015zm6.167 0v-2.396a4.479 4.479 0 01-.655.056 1.893 1.893 0 01-.783-.158 1.327 1.327 0 01-.778-1.25v-2.05h1.217v2.047c-.001.085.005.17.018.254a.537.537 0 00.081.189.36.36 0 00.203.136c.117.031.238.046.36.043.113-.002.226-.013.337-.034V68.43h1.242v5.798h-1.242zm2.094 0v-5.813h2.521v.875h-1.28v1.432h.975v.9h-.975v1.731h1.295v.87l-2.536.005zm4.705.08a2.198 2.198 0 01-.802-.132 1.2 1.2 0 01-.523-.4 1.764 1.764 0 01-.275-.617 3.374 3.374 0 01-.084-.805V70.29c-.005-.276.023-.551.084-.82.05-.223.144-.433.275-.618.134-.179.315-.315.52-.393a2.22 2.22 0 01.805-.13 2.19 2.19 0 01.772.118c.196.067.37.189.502.352.122.153.21.331.26.523.057.222.084.45.08.68v.514h-1.21v-.585-.207a1.339 1.339 0 00-.027-.18.396.396 0 00-.057-.166.333.333 0 00-.12-.1.473.473 0 00-.395 0 .345.345 0 00-.122.106.473.473 0 00-.066.167 1.018 1.018 0 00-.033.195v2.919c-.01.183.02.365.087.535a.347.347 0 00.14.143.33.33 0 00.195.04.372.372 0 00.311-.145.522.522 0 00.063-.171c.013-.062.022-.125.027-.189v-.832h1.21v.504c.001.189-.015.377-.047.563a1.836 1.836 0 01-.162.473 1.188 1.188 0 01-.299.374 1.337 1.337 0 01-.46.235c-.21.066-.43.099-.65.1v.015zm2.312-.08v-5.813h1.238v2.304h.117l.828-2.304h1.227l-1.017 2.721 1.052 3.077h-1.27l-.82-2.539h-.117v2.539l-1.238.015zm3.673 0l1.065-5.798h1.4l1.055 5.798H43.17l-.19-1.236h-.817l-.192 1.236h-1.175zm1.471-1.997h.598l-.299-2.245-.299 2.245zm2.261 1.997l1.074-2.582a1.394 1.394 0 01-.53-.59c-.133-.28-.2-.588-.194-.9a2.508 2.508 0 01.084-.69c.047-.179.128-.346.24-.491a1.11 1.11 0 01.394-.31c.167-.083.344-.141.527-.173.218-.035.44-.052.66-.05h1.448v5.799h-1.238v-2.31h-.284l-.82 2.291-1.36.006zm2.288-3.225h.162v-1.72h-.176c-.515 0-.772.285-.772.86 0 .576.263.86.786.86zm5.74 3.402v-.857h-.32a1.519 1.519 0 01-1.017-.346 1.327 1.327 0 01-.355-.485 1.37 1.37 0 01-.108-.597v-1.732c-.008-.203.029-.406.108-.592.08-.186.199-.35.35-.481a1.49 1.49 0 011.01-.35h.332v-.927h1.002v.927h.311c.373-.014.738.11 1.03.35.153.13.275.295.357.482.081.188.12.392.112.597v1.729a1.38 1.38 0 01-.11.595c-.081.187-.202.352-.354.484a1.43 1.43 0 01-.98.35 1.446 1.446 0 01-.198 0h-.168v.853h-1.002zm-.101-1.642h.101v-2.997h-.113c-.395 0-.599.217-.599.65v1.756a.555.555 0 00.14.46.518.518 0 00.44.158l.03-.027zm1.22 0h.02a.502.502 0 00.44-.16.538.538 0 00.138-.459v-1.76a.591.591 0 00-.15-.482.551.551 0 00-.463-.17h-.102v3.012a.71.71 0 00.117.028v-.01zm2.45 1.44v-5.788h.98v3.309l1.424-3.31h.805v5.799h-.996v-3.374l-1.46 3.374-.754-.01zm4.058 0v-5.788h1.873c.204-.017.41.013.602.087.192.075.366.192.51.343.268.356.399.802.368 1.252.005.2-.012.4-.05.597a1.472 1.472 0 01-.165.436 1.228 1.228 0 01-.252.31c-.098.084-.21.149-.332.19-.125.047-.254.081-.385.103-.145.02-.291.029-.437.028h-.494v2.474l-1.238-.031zm1.238-3.36h.398a.484.484 0 00.446-.177c.086-.187.123-.394.108-.6v-.253a1.112 1.112 0 00-.042-.207.374.374 0 00-.258-.263.673.673 0 00-.25-.04h-.402v1.54zm2.662 3.36l.09-5.797h1.31l.64 3.32.688-3.32h1.265l.09 5.798h-.882L67.2 70.45l-.745 3.754h-.628l-.778-3.78-.068 3.789-.898-.01zm4.624 0l1.06-5.788h1.402l1.056 5.798h-1.143l-.191-1.237h-.826l-.188 1.237-1.17-.01zm1.472-1.997h.598l-.299-2.245-.3 2.245zm5.57 1.763l-1.356-1.682v-.412l1.355-1.679v1.132l-.688.754.688.752v1.135zm1.495 0l-1.355-1.682v-.412l1.355-1.679v1.132l-.688.754.688.752v1.135zm.709.244v-5.798h2.584v.946h-1.32v4.852h-1.264zm3.194 0v-5.798h.98v3.309l1.425-3.31h.804v5.799h-.996v-3.374l-1.46 3.374h-.753zm4.082 0v-5.798h1.242v2.34h.861v-2.34h1.277v5.798h-1.244v-2.539h-.861v2.539h-1.275zm6 0v-5.798h.981v3.309l1.424-3.31h.805v5.799h-.996v-3.374l-1.46 3.374h-.754zm5.839 0v-5.798h3.368v5.798h-1.224V69.33h-.921v4.883h-1.223zm3.921 0l1.08-5.798h1.399l1.056 5.798h-1.142l-.195-1.237h-.819l-.189 1.237h-1.19zm1.471-1.998h.599l-.299-2.245-.3 2.245zm2.612 1.998v-5.798h1.869c.204-.017.41.013.602.087.192.075.367.192.511.343.268.356.4.802.37 1.252.002.197-.018.393-.059.585-.03.153-.084.3-.162.436-.067.115-.15.22-.248.309a1.03 1.03 0 01-.335.191c-.125.047-.255.081-.386.103-.146.02-.293.028-.44.027h-.484v2.474l-1.238-.009zm1.238-3.361h.395a.48.48 0 00.445-.177c.087-.186.126-.393.111-.6v-.253a1.046 1.046 0 00-.042-.207.377.377 0 00-.066-.158.42.42 0 00-.161-.099.7.7 0 00-.255-.04h-.391l-.036 1.534zm3.194 3.361v-4.852h-.864v-.946h2.958v.946h-.853v4.852h-1.241zm2.596 0v-5.798h1.245v2.34h.861v-2.34h1.241v5.798h-1.241v-2.539h-.861v2.539H112.1zm4.188 0v-5.798h2.521v.875h-1.283v1.432h.978v.9h-.978v1.731h1.295v.87l-2.533-.01zm3.095 0v-5.798h1.873c.21-.024.423.002.622.076.2.073.38.192.529.348.268.356.399.802.368 1.252a2.91 2.91 0 01-.069.603 1.408 1.408 0 01-.415.745 1.03 1.03 0 01-.332.192c-.126.046-.255.08-.386.102-.146.02-.293.029-.44.028h-.488v2.474l-1.262-.022zm1.239-3.361h.394a.487.487 0 00.449-.177c.086-.186.123-.393.108-.6v-.253a.917.917 0 00-.045-.207.35.35 0 00-.09-.164.414.414 0 00-.164-.1.684.684 0 00-.252-.04h-.394l-.006 1.54zm2.691 3.361v-5.798h1.242v2.446h.257c.451-.033.898.112 1.25.405a1.683 1.683 0 01.425 1.265c.002.18-.014.36-.048.538a1.76 1.76 0 01-.129.414 1.188 1.188 0 01-.209.31 1.199 1.199 0 01-.272.207 1.473 1.473 0 01-.332.133 3.42 3.42 0 01-.79.087l-1.394-.007zm1.242-.847h.158a.558.558 0 00.491-.204 1.01 1.01 0 00.137-.597v-.059a1.019 1.019 0 00-.149-.563.578.578 0 00-.494-.198h-.143v1.62zm2.392-4.948h1.245v5.798h-1.245v-5.798zm1.989 5.566V72.85l.712-.754-.661-.767v-1.132l1.376 1.68v.41l-1.427 1.698zm1.496 0V72.85l.706-.754-.655-.767v-1.132l1.373 1.68v.41l-1.424 1.698zm-46.56-11.2v-24.12h2.943l5.71 13.662V38.664h3.52v24.12H93.26l-5.784-14.355V62.79l-3.604-.006z" fill="#0B0B26"/></svg>