<svg width="40" height="34" fill="none" xmlns="http://www.w3.org/2000/svg"><path d="M7.12 14.624a2.397 2.397 0 00.242 2.544c.276.356.646.625 1.069.775.422.15.877.175 1.313.071.519-.113.981-.412 1.302-.84.32-.429.479-.96.446-1.497a2.45 2.45 0 00-.463-1.133c-1.058-1.451-3.043-1.673-3.908.08zM15.227 9.685a2.25 2.25 0 00.874 1.717c.548.496 1.25.78 1.984.806.367.01.73-.074 1.054-.246.325-.172.6-.426.8-.737a2.352 2.352 0 00-.166-2.46 2.528 2.528 0 00-1.03-.91 2.49 2.49 0 00-1.348-.232c-.97.239-2.116 1-2.168 2.062zM23.523 15.783c-.154.454-.16.947-.02 1.405.142.458.425.86.807 1.144a2.266 2.266 0 002.203.248c.382-.162.71-.432.944-.78a2.106 2.106 0 00.044-2.23c-.892-1.469-3.358-1.495-3.978.213zM29.484 7.499a2.336 2.336 0 00.289 2.31c.25.38.598.686 1.005.885a2.025 2.025 0 002.002-.15 2.3 2.3 0 00.82-1.14c.15-.457.153-.95.01-1.41a2.277 2.277 0 00-.702-1.115 2.223 2.223 0 00-2.483-.298 2.26 2.26 0 00-.94.918v0zM30.063 10.641a14.725 14.725 0 01-3.095 4.231M20.14 11.676a9.459 9.459 0 004.004 2.957M15.19 11.35l-3.62 3.027M2.4 23.52l36.605-.63M2.182 2.206l-.157 14.047-.131 10.904.568.142" stroke="#fff" stroke-width="2.46" stroke-miterlimit="10"/><path d="M38.508 1.834c0 8.754-.245 17.42-.22 26.182H1.754M37.65 1.728L.836 1.648M11.693 32.645h18.229M18.233 31.741v-3.009M23.111 31.46v-2.904" stroke="#fff" stroke-width="2.46" stroke-miterlimit="10"/></svg>