<svg width="32" height="43" fill="none" xmlns="http://www.w3.org/2000/svg"><g clip-path="url(#clip0)" stroke="#fff" stroke-width="2.46" stroke-miterlimit="10"><path d="M7.952 5.649c-.773-.044-2.275.063-2.275.063h-3.24l.002 5.098v29.721h4.42s4.572 0 6.85-.091H30.262V11.028c-.004-1.253 0-5.316 0-5.316H24.58s-3.298.034-4.898.435c.904-5.27-8.06-5.298-7.292.463a23.794 23.794 0 00-4.437-.961z"/><path d="M21.977 6.211c.207 2.15.668 4 .903 6.15h-6.596c-2.386-.045-4.763-.199-7.14-.244.2-2.005.678-4.046.904-6.051M9.58 23.865l4.933 4.908 8.314-9.517"/></g><defs><clipPath id="clip0"><path fill="#fff" transform="translate(.858 .831)" d="M0 0h30.869v41.514H0z"/></clipPath></defs></svg>