<svg width="34" height="36" fill="none" xmlns="http://www.w3.org/2000/svg"><g clip-path="url(#clip0)" stroke="#fff" stroke-width="2.46" stroke-miterlimit="10"><path d="M11.642 2.132a13.067 13.067 0 00-5.28 2.599A13.285 13.285 0 002.727 9.4a13.43 13.43 0 00.245 11.545 12.896 12.896 0 004.416 4.868 12.673 12.673 0 006.21 2.027 12.584 12.584 0 007.018-2.017 12.828 12.828 0 004.767-5.594c.938-2.331 1.2-4.884.758-7.361a13.316 13.316 0 00-3.258-6.624 13.446 13.446 0 00-6.342-3.707 13.316 13.316 0 00-7.318.197"/><path d="M7.081 10.283c.482-1 1.22-1.852 2.138-2.466a6.094 6.094 0 013.078-1.022 6.145 6.145 0 013.188.789 6.249 6.249 0 012.345 2.325M22.914 25.088l10.053 9.344"/></g><defs><clipPath id="clip0"><path fill="#fff" transform="translate(0 .564)" d="M0 0h34v35H0z"/></clipPath></defs></svg>