<svg width="41" height="38" fill="none" xmlns="http://www.w3.org/2000/svg"><path d="M21.295 32.776c.258-.02.518-.02.776 0l17.452-.11V1.363H1.839M1.84 1.466L1.66 32.801h6.676M5.322 11.278l4.099 4.168M9.476 11.007L4.849 15.71" stroke="#fff" stroke-width="2" stroke-miterlimit="10"/><path d="M23.802 17.495l3.608-5.876c1.311 2.058 2.603 3.838 3.908 5.896" stroke="#fff" stroke-width="2" stroke-miterlimit="10"/><path d="M27.233 13.012v10.58a4.557 4.557 0 01-.335 1.92 4.494 4.494 0 01-1.104 1.595c-.496.433-1.08.75-1.71.927a4.383 4.383 0 01-1.936.101M19.392 16.613c1.195 0 2.164-.986 2.164-2.2 0-1.216-.969-2.201-2.164-2.201-1.195 0-2.163.985-2.163 2.2 0 1.215.968 2.2 2.163 2.2zM32.986 28.543c1.195 0 2.164-.986 2.164-2.2 0-1.216-.969-2.201-2.164-2.201-1.195 0-2.164.985-2.164 2.2 0 1.215.97 2.2 2.164 2.2zM14.02 31.319c1.695 0 3.068-1.396 3.068-3.12 0-1.722-1.373-3.119-3.067-3.119-1.694 0-3.068 1.397-3.068 3.12s1.374 3.119 3.068 3.119z" stroke="#fff" stroke-width="2" stroke-miterlimit="10"/><path d="M12.455 20.203h3.52c.216.763.636 2.006.636 2.006s1.432-.7 2.202-1.087l2.425 2.472-1.082 2.588s1.311.305 1.973.434v3.132l-2.126.92s.427 1.403.662 2.05l-2.278 2.317c-.637-.278-1.795-.841-1.795-.841s-.496 1.378-.751 2.07l-3.182.085-.93-2.336s-1.431.841-1.953 1.165l-2.482-2.524a21.48 21.48 0 001.1-2.065 7.404 7.404 0 00-2.068-.763v-3.068l2.011-1.087s-.464-1.249-.75-1.805l2.341-2.369c.624.363 1.28.664 1.96.9 0 0 .35-1.327.567-2.194z" stroke="#fff" stroke-width="2" stroke-miterlimit="10"/><path d="M5.742 3.7H4.304v1.462h1.438V3.699zM8.472 3.7H7.033v1.462h1.439V3.699zM11.2 3.7H9.762v1.462H11.2V3.699z" fill="#fff"/><path d="M2.373 8.21H39.23" stroke="#fff" stroke-width="2" stroke-miterlimit="10"/></svg>