<svg width="31" height="40" fill="none" xmlns="http://www.w3.org/2000/svg"><g clip-path="url(#clip0)" stroke="#fff" stroke-width="2.46" stroke-miterlimit="10"><path d="M28.69 8.32c-.063-.211-.142-.65-.204-.843a14.363 14.363 0 01-7.294-1.054 13.596 13.596 0 01-5.668-4.493c-3.76 3.3-8.664 5.169-13.778 5.252-.097.977-.292 1.846-.38 2.824v16.328c.997 2.616 2.564 5 4.598 7a20.853 20.853 0 007.203 4.6c1.17.43 2.578 1.062 3.783.657 1.4-.57 2.71-1.326 3.89-2.242a25.745 25.745 0 006.662-6.744c1.453-2.166 1.188-3.835 1.188-6.297V8.32z"/><path d="M7.913 19.742l5.821 5.227c1.667-4.427 4.992-8.113 9.339-10.352"/></g><defs><clipPath id="clip0"><path fill="#fff" transform="translate(.036)" d="M0 0h30v40H0z"/></clipPath></defs></svg>