<?xml version="1.0" encoding="utf-8"?><svg viewBox="0 0 274 71" xmlns="http://www.w3.org/2000/svg" xmlns:xlink="http://www.w3.org/1999/xlink"><style>:root>svg{display:none}:root>svg:target{display:block}</style><svg  viewBox="0 0 24 24" id="brain-icon" xmlns="http://www.w3.org/2000/svg"><path d="M9 0C7.09 0 5.543 1.387 5.156 3.188 2.824 3.604 1 5.55 1 8c0 .246.027.465.063.688C.418 9.636 0 10.753 0 12c0 1.797.895 3.309 2.156 4.406-.09.356-.156.711-.156 1.094C2 19.973 4.027 22 6.5 22h.063c.582 1.129 1.59 2 2.937 2a3.49 3.49 0 002.5-1.063A3.489 3.489 0 0014.5 24c1.348 0 2.355-.871 2.938-2h.062c2.348 0 4.273-1.828 4.469-4.125H22c0-.063-.027-.125-.031-.188.004-.062.031-.125.031-.187 0-.371-.133-.688-.219-1.031C23.078 15.367 24 13.829 24 12c0-1.246-.418-2.363-1.063-3.313.036-.222.063-.44.063-.687 0-2.45-1.824-4.395-4.156-4.813C18.457 1.388 16.91 0 15 0c-1.2 0-2.266.559-3 1.406C11.266.56 10.2 0 9 0zm0 2c1.117 0 2 .883 2 2v2c0 1.668-1.332 3-3 3v2c1.133 0 2.16-.39 3-1.031V20.5c0 .84-.66 1.5-1.5 1.5a1.47 1.47 0 01-1.469-1.219l-.187-.968-.969.156A2.487 2.487 0 014 17.5c0-.309.05-.598.156-.875.008-.023.024-.04.031-.063A2.468 2.468 0 016 15.062l-.406-1.968A4.452 4.452 0 003 14.656 3.958 3.958 0 012 12a3.9 3.9 0 01.875-2.469l.313-.375-.094-.5A2.858 2.858 0 013 8c0-1.668 1.332-3 3-3h1V4c0-1.117.883-2 2-2zm6 0c1.117 0 2 .883 2 2v1h1c1.668 0 3 1.332 3 3 0 .215-.04.422-.094.656l-.093.5.312.375A3.9 3.9 0 0122 12c0 1.2-.512 2.27-1.344 3-.683-.605-1.554-1-2.531-1-.945 0-1.797.336-2.469.906l1.282 1.532c.33-.284.752-.44 1.187-.438.965 0 1.734.723 1.844 1.656C19.887 18.973 18.836 20 17.5 20c-.09 0-.2-.004-.375-.031l-.969-.157-.187.97A1.47 1.47 0 0114.5 22c-.84 0-1.5-.66-1.5-1.5V9.969A4.915 4.915 0 0016 11V9c-1.668 0-3-1.332-3-3V4c0-1.117.883-2 2-2z"/></svg><svg  viewBox="0 0 22 22" id="clock-icon" xmlns="http://www.w3.org/2000/svg"><path d="M11 1C5.478 1 1 5.478 1 11s4.478 10 10 10 10-4.478 10-10S16.522 1 11 1zm0 18.304A8.305 8.305 0 012.696 11 8.305 8.305 0 0111 2.696 8.305 8.305 0 0119.304 11 8.305 8.305 0 0111 19.304z"/><path d="M14.9 13.826l-3.184-2.301V6a.18.18 0 00-.178-.179h-1.074a.18.18 0 00-.178.179v6.147c0 .058.027.112.073.145l3.692 2.692a.18.18 0 00.25-.038l.639-.87a.178.178 0 00-.04-.25z"/><path d="M11 1C5.478 1 1 5.478 1 11s4.478 10 10 10 10-4.478 10-10S16.522 1 11 1zm0 18.304A8.305 8.305 0 012.696 11 8.305 8.305 0 0111 2.696 8.305 8.305 0 0119.304 11 8.305 8.305 0 0111 19.304z" stroke="#fff" stroke-width=".6"/><path d="M14.9 13.826l-3.184-2.301V6a.18.18 0 00-.178-.179h-1.074a.18.18 0 00-.178.179v6.147c0 .058.027.112.073.145l3.692 2.692a.18.18 0 00.25-.038l.639-.87a.178.178 0 00-.04-.25z" stroke="#fff" stroke-width=".6"/></svg><svg  viewBox="0 0 14 15" id="close-icon" xmlns="http://www.w3.org/2000/svg"><path d="M8.029 7.98l5.803-5.788a.697.697 0 00-.505-1.151.701.701 0 00-.482.167L7.042 6.996 1.239 1.2a.704.704 0 00-1.2.496.7.7 0 00.206.495l5.81 5.788-5.81 5.787a.698.698 0 00.76 1.16.7.7 0 00.227-.175l5.81-5.788 5.803 5.788a.7.7 0 001.154-.504.697.697 0 00-.167-.48L8.029 7.98z" fill="#000"/></svg><svg  viewBox="0 0 22 16" id="email-icon" xmlns="http://www.w3.org/2000/svg"><path d="M19.571 1H2.43a1.42 1.42 0 00-1.01.423c-.27.271-.42.638-.42 1.021V14c0 .383.15.75.418 1.021.268.271.632.423 1.01.423h17.143a1.42 1.42 0 001.01-.423A1.45 1.45 0 0021 14V2.444c0-.383-.15-.75-.418-1.02A1.42 1.42 0 0019.572 1zM18 2.444l-7 4.897-7-4.897h14zM2.429 14V3.102l8.164 5.712a.709.709 0 00.814 0l8.164-5.712V14H2.43z" stroke="#fff" stroke-width=".6"/></svg><svg  viewBox="0 0 10 20" id="fb-icon" xmlns="http://www.w3.org/2000/svg"><path d="M2.481 20v-9.385H0V7.237h2.481V4.35C2.481 2.083 3.947 0 7.325 0c1.367 0 2.379.131 2.379.131l-.08 3.155s-1.031-.01-2.157-.01c-1.218 0-1.413.562-1.413 1.493v2.468h3.667l-.16 3.378H6.054V20H2.481z"/></svg><svg  viewBox="0 0 20 20" id="first-aid-icon" xmlns="http://www.w3.org/2000/svg"><path d="M18 4h-4V2c0-1.1-.9-2-2-2H8C6.9 0 6 .9 6 2v2H2C.9 4 0 4.9 0 6v12c0 1.1.9 2 2 2h16c1.1 0 2-.9 2-2V6c0-1.1-.9-2-2-2zM8 2h4v2H8V2zm10 16H2V6h16v12z"/><path d="M11 8H9v3H6v2h3v3h2v-3h3v-2h-3V8z"/></svg><svg  viewBox="0 0 21 22" id="flask-icon" xmlns="http://www.w3.org/2000/svg"><g clip-path="url(#gclip0)"><path d="M3.004 22h14.892c.754 0 1.4-.25 1.937-.752.537-.501.82-1.139.85-1.912v-.086a3.58 3.58 0 00-.567-1.934l-6.88-9.066V1.848h.915c.232 0 .45-.1.653-.301.203-.2.305-.415.305-.645 0-.229-.102-.437-.305-.623S14.384 0 14.151 0H6.75c-.232 0-.45.093-.653.28-.203.185-.305.393-.305.622 0 .23.102.444.305.645.203.2.42.3.653.3h.914v6.317L.871 17.23c-.377.602-.566 1.218-.566 1.848l-.087.172c.029.773.32 1.425.87 1.955.552.53 1.19.795 1.916.795zm4.66-10.742l.478-.516a8.233 8.233 0 001.394-3.308V1.848h1.828v5.5c.262 1.346.726 2.435 1.394 3.265l.479.559 1.872 2.492H5.791l1.872-2.406zm-5.313 7.09l2.526-3.395-.695.645h12.32l2.047 2.75c.058.057.145.33.261.816a.975.975 0 01-.283.688c-.189.2-.4.3-.631.3H3.004c-.232 0-.442-.1-.63-.3a.975.975 0 01-.284-.688c0-.372.087-.645.261-.816z"/></g><defs><clipPath id="gclip0"><path d="M0 0h20.9v22H0z"/></clipPath></defs></svg><svg  viewBox="0 0 27 22" id="heart-icon" xmlns="http://www.w3.org/2000/svg"><path d="M24.75 9h-3.125a1.235 1.235 0 00-.887.38l-1.55 1.635-3.5-4.043a1.25 1.25 0 00-.913-.401 1.235 1.235 0 00-.912.4l-2.125 2.156H9.75c-.332 0-.65.133-.884.37a1.277 1.277 0 000 1.793c.235.238.552.372.884.372h2.5a1.234 1.234 0 00.887-.368l1.613-1.698 3.5 4.043a1.251 1.251 0 00.9.43 1.236 1.236 0 00.888-.367l2.125-2.167h2.587c.331 0 .65-.134.884-.371a1.277 1.277 0 000-1.793A1.241 1.241 0 0024.75 9zm-9.238 6.718l-2.375 2.408a1.248 1.248 0 01-.887.375 1.234 1.234 0 01-.887-.375L4.85 11.522a4.683 4.683 0 01-1-1.518 4.735 4.735 0 010-3.58 4.682 4.682 0 011-1.518A4.58 4.58 0 018.106 3.54c1.221 0 2.392.49 3.257 1.365a1.25 1.25 0 00.887.375 1.235 1.235 0 00.887-.375 4.69 4.69 0 013.257-1.32 4.69 4.69 0 013.256 1.32c.279.286.522.605.725.95a1.235 1.235 0 001.64.35 1.26 1.26 0 00.561-.709 1.284 1.284 0 00-.051-.908 7.592 7.592 0 00-1.1-1.433 7.028 7.028 0 00-9.175-.799 7.017 7.017 0 00-7.392-.563 7.14 7.14 0 00-2.821 2.66A7.276 7.276 0 001 8.213c0 .943.184 1.877.542 2.747a7.13 7.13 0 001.546 2.323L9.6 19.888A3.724 3.724 0 0012.25 21c.994 0 1.947-.4 2.65-1.112l2.35-2.383a1.277 1.277 0 000-1.787 1.241 1.241 0 00-1.738 0z" stroke="#1A47A1" stroke-width=".2"/></svg><svg  viewBox="0 0 24 24" id="home-icon" xmlns="http://www.w3.org/2000/svg"><path d="M6.893 11.364c.234 0 .461.07.655.201.194.132.345.319.434.537a1.213 1.213 0 01-.255 1.304 1.173 1.173 0 01-1.285.259c-.215-.09-.4-.244-.529-.44a1.209 1.209 0 01.147-1.51c.221-.225.52-.351.833-.351zm0-1.595c-.544 0-1.075.164-1.528.47a2.782 2.782 0 00-1.012 1.253 2.83 2.83 0 00-.157 1.612c.106.542.368 1.039.753 1.43.384.39.874.655 1.408.763a2.712 2.712 0 001.589-.159A2.759 2.759 0 009.18 14.11a2.82 2.82 0 00-.342-3.524 2.73 2.73 0 00-1.945-.817z"/><path d="M19.073 10.566h-6.286a1.56 1.56 0 00-1.111.467c-.295.3-.46.705-.46 1.128v4.784H2.571v-9.09L12 2.705l9.846 5.374.739-1.404L12.37 1.094a.777.777 0 00-.738 0L1.416 6.675A.79.79 0 001 7.377v15.948h1.572V18.54H21.43v4.785h1.572v-8.772a4.017 4.017 0 00-1.15-2.819 3.9 3.9 0 00-2.779-1.168zm-6.286 6.38V12.16h6.286a2.34 2.34 0 011.667.7 2.41 2.41 0 01.69 1.692v2.392h-8.643z"/><path d="M6.893 11.364c.234 0 .461.07.655.201.194.132.345.319.434.537a1.213 1.213 0 01-.255 1.304 1.173 1.173 0 01-1.285.259c-.215-.09-.4-.244-.529-.44a1.209 1.209 0 01.147-1.51c.221-.225.52-.351.833-.351zm0-1.595c-.544 0-1.075.164-1.528.47a2.782 2.782 0 00-1.012 1.253 2.83 2.83 0 00-.157 1.612c.106.542.368 1.039.753 1.43.384.39.874.655 1.408.763a2.712 2.712 0 001.589-.159A2.759 2.759 0 009.18 14.11a2.82 2.82 0 00-.342-3.524 2.73 2.73 0 00-1.945-.817z" stroke="#fff" stroke-width=".2"/><path d="M19.073 10.566h-6.286a1.56 1.56 0 00-1.111.467c-.295.3-.46.705-.46 1.128v4.784H2.571v-9.09L12 2.705l9.846 5.374.739-1.404L12.37 1.094a.777.777 0 00-.738 0L1.416 6.675A.79.79 0 001 7.377v15.948h1.572V18.54H21.43v4.785h1.572v-8.772a4.017 4.017 0 00-1.15-2.819 3.9 3.9 0 00-2.779-1.168zm-6.286 6.38V12.16h6.286a2.34 2.34 0 011.667.7 2.41 2.41 0 01.69 1.692v2.392h-8.643z" stroke="#fff" stroke-width=".2"/></svg><svg  viewBox="0 0 17 16" id="inst-icon" xmlns="http://www.w3.org/2000/svg"><path d="M8.932 5.332A2.673 2.673 0 006.264 8a2.673 2.673 0 002.668 2.668A2.673 2.673 0 0011.6 8a2.673 2.673 0 00-2.668-2.668zM16.933 8c0-1.105.01-2.2-.052-3.302-.062-1.281-.354-2.418-1.29-3.355-.94-.938-2.074-1.228-3.355-1.29C11.132-.01 10.036 0 8.934 0c-1.105 0-2.2-.01-3.302.052-1.281.062-2.418.354-3.354 1.29-.939.94-1.23 2.074-1.291 3.355C.925 5.803.935 6.898.935 8c0 1.103-.01 2.2.052 3.302.062 1.281.354 2.418 1.29 3.354.94.94 2.074 1.23 3.355 1.291 1.105.062 2.2.052 3.302.052 1.105 0 2.2.01 3.302-.052 1.281-.062 2.418-.354 3.355-1.29.938-.94 1.228-2.074 1.29-3.355.064-1.102.052-2.197.052-3.302zm-8 4.105A4.099 4.099 0 014.826 8a4.099 4.099 0 014.105-4.105A4.099 4.099 0 0113.037 8a4.099 4.099 0 01-4.105 4.105zm4.272-7.42a.958.958 0 110-1.917.957.957 0 110 1.918z"/></svg><svg  viewBox="0 0 44 28" id="left-arrow-icon" xmlns="http://www.w3.org/2000/svg"><path fill-rule="evenodd" clip-rule="evenodd" d="M15.416.587a2 2 0 00-2.831 0L.587 12.585a2 2 0 000 2.831l11.998 11.998a2.002 2.002 0 102.831-2.832L4.831 14 15.416 3.42a2 2 0 000-2.832z" fill="#19459F"/><path d="M5.999 11.997h35.977c1.104 0 2.013.896 2.013 2s-.91 2-2.013 2H5.999a1.993 1.993 0 01-1.993-2c0-1.104.888-2 1.993-2z" fill="#19459F"/></svg><svg  viewBox="0 0 13 20" id="odnoklassniki-icon" xmlns="http://www.w3.org/2000/svg"><path d="M6.514 0A5.168 5.168 0 001.35 5.162a5.167 5.167 0 005.163 5.16 5.166 5.166 0 005.161-5.16A5.167 5.167 0 006.514 0zm0 3.024A2.14 2.14 0 018.65 5.162a2.139 2.139 0 01-2.136 2.136 2.14 2.14 0 01-2.138-2.136 2.14 2.14 0 012.138-2.138zm-4.257 7.474a1.513 1.513 0 00-.83 2.794 9.688 9.688 0 002.997 1.24L1.539 17.42a1.512 1.512 0 102.14 2.138l2.834-2.836 2.836 2.836a1.511 1.511 0 102.139-2.138L8.6 14.533a9.67 9.67 0 002.997-1.241 1.512 1.512 0 10-1.61-2.56 6.555 6.555 0 01-6.95 0 1.505 1.505 0 00-.78-.234z"/></svg><svg  viewBox="0 0 44 28" id="right-arrow-icon" xmlns="http://www.w3.org/2000/svg"><path fill-rule="evenodd" clip-rule="evenodd" d="M28.573.587a2 2 0 012.831 0l11.997 11.998a1.998 1.998 0 010 2.831L31.404 27.414a2.002 2.002 0 11-2.831-2.832L39.158 14 28.573 3.42a2 2 0 010-2.832z" fill="#19459F"/><path d="M37.99 11.997H2.013a2.011 2.011 0 00-2.013 2c0 1.104.909 2 2.013 2H37.99a1.993 1.993 0 001.993-2c0-1.104-.888-2-1.993-2z" fill="#19459F"/></svg><svg  viewBox="0 0 20 20" id="telephone-icon" xmlns="http://www.w3.org/2000/svg"><path d="M15.482 10.831a1.05 1.05 0 00-1.488 0l-1.678 1.678c-.777-.232-2.229-.758-3.148-1.678-.92-.92-1.446-2.37-1.678-3.148l1.678-1.677a1.051 1.051 0 000-1.488L4.958.308a1.051 1.051 0 00-1.487 0L.617 3.163c-.4.4-.625.95-.617 1.51.024 1.499.421 6.703 4.523 10.805C8.625 19.58 13.829 19.975 15.329 20h.03a2.08 2.08 0 001.478-.617l2.854-2.853a1.052 1.052 0 000-1.488l-4.21-4.21zm-.134 7.063c-1.313-.022-5.807-.374-9.337-3.906-3.542-3.542-3.885-8.05-3.906-9.338l2.11-2.11 2.72 2.722-1.36 1.36a1.052 1.052 0 00-.286.96c.025.121.643 2.99 2.39 4.737 1.747 1.747 4.616 2.365 4.737 2.39a1.043 1.043 0 00.96-.285l1.362-1.36 2.72 2.72-2.11 2.11z"/></svg><svg  viewBox="0 0 274 71" id="title" xmlns="http://www.w3.org/2000/svg"><path d="M51.84 67.593c-3.232 1.624-9.728 3.248-18.061 3.248C14.513 70.84 0 58.615 0 36.073 0 14.55 14.513 0 35.712 0c8.523 0 13.91 1.847 16.223 3.057l-2.123 7.227C46.454 8.66 41.701 7.418 36.03 7.418c-16.034 0-26.681 10.284-26.681 28.337 0 16.81 9.633 27.636 26.269 27.636 5.386 0 10.868-1.115 14.417-2.866l1.806 7.068zm54.376-57.373c-3.359-1.624-8.207-2.865-13.499-2.865-15.527 0-24.97 10.602-26.364 23.847h35.11v7.132H66.448c.412 13.85 10.362 25.184 25.984 25.184 5.26 0 10.235-1.019 14.196-2.738l1.616 6.845C104.885 69.25 98.896 71 90.784 71c-19.36 0-33.969-13.15-33.969-35.373C56.815 16.27 70.22.064 92.432.064c8.619 0 13.499 2.037 15.939 3.247l-2.155 6.91zm13.087-8.15c3.866-.828 9.949-1.433 16.129-1.433 8.84 0 14.512 1.528 18.758 4.998 3.549 2.643 5.672 6.718 5.672 12.13 0 6.623-4.372 12.45-11.565 15.092v.191c6.495 1.624 14.1 7.037 14.1 17.225 0 5.922-2.344 10.411-5.767 13.754-4.753 4.394-12.484 6.432-23.638 6.432-6.084 0-10.742-.414-13.689-.828V2.07zm8.809 28.113h8.017c9.316 0 14.798-4.903 14.798-11.526 0-8.055-6.084-11.207-15.02-11.207-4.056 0-6.401.319-7.795.605v22.128zm0 32.921c1.711.318 4.246.414 7.415.414 9.125 0 17.554-3.375 17.554-13.34 0-9.393-8.017-13.245-17.649-13.245h-7.32v26.171zm90.689-52.884c-3.359-1.624-8.207-2.865-13.499-2.865-15.527 0-24.97 10.602-26.364 23.847h35.11v7.132h-34.983c.412 13.85 10.362 25.184 25.983 25.184 5.261 0 10.235-1.019 14.196-2.738l1.616 6.845C217.502 69.25 211.513 71 203.401 71c-19.361 0-33.969-13.15-33.969-35.373 0-19.358 13.404-35.563 35.616-35.563 8.619 0 13.499 2.037 15.939 3.247l-2.186 6.91zm13.087-8.278c4.246-.7 9.854-1.337 16.952-1.337 8.714 0 15.115 2.038 19.171 5.699C271.75 9.552 274 14.55 274 20.664c0 6.208-1.838 11.11-5.26 14.677-4.658 4.998-12.263 7.545-20.914 7.545-2.63 0-5.07-.095-7.098-.604V69.79h-8.84V1.942zm8.84 33.144c1.933.51 4.373.7 7.32.7 10.647 0 17.143-5.19 17.143-14.677 0-9.074-6.401-13.468-16.129-13.468-3.866 0-6.781.319-8.302.7v26.745h-.032z" fill="#353535"/><path d="M51.84 67.593c-3.232 1.624-9.728 3.248-18.061 3.248C14.513 70.84 0 58.615 0 36.073 0 14.55 14.513 0 35.712 0c8.523 0 13.91 1.847 16.223 3.057l-2.123 7.227C46.454 8.66 41.701 7.418 36.03 7.418c-16.034 0-26.681 10.284-26.681 28.337 0 16.81 9.633 27.636 26.269 27.636 5.386 0 10.868-1.115 14.417-2.866l1.806 7.068zm54.376-57.373c-3.359-1.624-8.207-2.865-13.499-2.865-15.527 0-24.97 10.602-26.364 23.847h35.11v7.132H66.448c.412 13.85 10.362 25.184 25.984 25.184 5.26 0 10.235-1.019 14.196-2.738l1.616 6.845C104.885 69.25 98.896 71 90.784 71c-19.36 0-33.969-13.15-33.969-35.373C56.815 16.27 70.22.064 92.432.064c8.619 0 13.499 2.037 15.939 3.247l-2.155 6.91zm13.087-8.15c3.866-.828 9.949-1.433 16.129-1.433 8.84 0 14.512 1.528 18.758 4.998 3.549 2.643 5.672 6.718 5.672 12.13 0 6.623-4.372 12.45-11.565 15.092v.191c6.495 1.624 14.1 7.037 14.1 17.225 0 5.922-2.344 10.411-5.767 13.754-4.753 4.394-12.484 6.432-23.638 6.432-6.084 0-10.742-.414-13.689-.828V2.07zm8.809 28.113h8.017c9.316 0 14.798-4.903 14.798-11.526 0-8.055-6.084-11.207-15.02-11.207-4.056 0-6.401.319-7.795.605v22.128zm0 32.921c1.711.318 4.246.414 7.415.414 9.125 0 17.554-3.375 17.554-13.34 0-9.393-8.017-13.245-17.649-13.245h-7.32v26.171zm90.689-52.884c-3.359-1.624-8.207-2.865-13.499-2.865-15.527 0-24.97 10.602-26.364 23.847h35.11v7.132h-34.983c.412 13.85 10.362 25.184 25.983 25.184 5.261 0 10.235-1.019 14.196-2.738l1.616 6.845C217.502 69.25 211.513 71 203.401 71c-19.361 0-33.969-13.15-33.969-35.373 0-19.358 13.404-35.563 35.616-35.563 8.619 0 13.499 2.037 15.939 3.247l-2.186 6.91zm13.087-8.278c4.246-.7 9.854-1.337 16.952-1.337 8.714 0 15.115 2.038 19.171 5.699C271.75 9.552 274 14.55 274 20.664c0 6.208-1.838 11.11-5.26 14.677-4.658 4.998-12.263 7.545-20.914 7.545-2.63 0-5.07-.095-7.098-.604V69.79h-8.84V1.942zm8.84 33.144c1.933.51 4.373.7 7.32.7 10.647 0 17.143-5.19 17.143-14.677 0-9.074-6.401-13.468-16.129-13.468-3.866 0-6.781.319-8.302.7v26.745h-.032z" fill="#353535"/></svg><svg  viewBox="0 0 20 16" id="twit-icon" xmlns="http://www.w3.org/2000/svg"><path d="M6.438 16A11.421 11.421 0 0017.929 4.508V3.98a8.413 8.413 0 002.005-2.085 8.334 8.334 0 01-2.318.635 4.081 4.081 0 001.79-2.237 7.956 7.956 0 01-2.56.984 4.045 4.045 0 00-6.891 3.678A11.447 11.447 0 011.63.74a4.036 4.036 0 001.253 5.37 4 4 0 01-1.79-.501v.045a4.054 4.054 0 003.178 3.982 4.054 4.054 0 01-1.79.072 4.036 4.036 0 003.74 2.765 8.1 8.1 0 01-5.02 1.79 8.797 8.797 0 01-.958-.08c1.85 1.178 4 1.8 6.194 1.79"/></svg><svg  viewBox="0 0 28 16" id="vk-icon" xmlns="http://www.w3.org/2000/svg"><path d="M26.626 1.084c.189-.626 0-1.084-.89-1.084h-2.948c-.75 0-1.093.397-1.28.832 0 0-1.5 3.655-3.624 6.025-.685.69-.998.908-1.372.908-.187 0-.459-.218-.459-.843V1.084c0-.75-.216-1.084-.841-1.084h-4.633c-.467 0-.75.347-.75.678 0 .71 1.062.873 1.171 2.874v4.34c0 .95-.17 1.123-.547 1.123-.999 0-3.43-3.669-4.872-7.868C5.301.33 5.017 0 4.264 0H1.317C.474.001.307.398.307.833c0 .783.998 4.654 4.652 9.775C7.395 14.104 10.824 16 13.949 16c1.872 0 2.103-.42 2.103-1.147V12.21c0-.841.179-1.01.772-1.01.435 0 1.185.22 2.934 1.904C21.756 15.102 22.087 16 23.21 16h2.947c.841 0 1.262-.421 1.02-1.252-.265-.827-1.219-2.03-2.485-3.453-.689-.812-1.717-1.686-2.03-2.123-.437-.563-.31-.812 0-1.312.001.001 3.592-5.056 3.965-6.775z"/></svg></svg>
