<svg width="41" height="39" fill="none" xmlns="http://www.w3.org/2000/svg"><path d="M20.23 18.663v17.22c0 .074.081.148.081.223l.742.684c.212.199.437.383.675.55a3.192 3.192 0 004.48-.941 3.21 3.21 0 00.498-1.61" stroke="#fff" stroke-width="2" stroke-miterlimit="10"/><path d="M1.483 20.35a8.146 8.146 0 015.727-1.486 8.155 8.155 0 015.193 2.84 9.734 9.734 0 017.308-3.495 9.712 9.712 0 017.417 3.257 8.129 8.129 0 015.732-3.293 8.105 8.105 0 016.278 2.066" stroke="#fff" stroke-width="2" stroke-miterlimit="10"/><path d="M1.038 20.492c1.031-2.69 2.226-7.278 3.768-9.665a19.205 19.205 0 016.031-6.067c4.57-2.788 10.423-2.9 15.423-1.048 6.676 2.453 11.928 10.045 13.656 16.93" stroke="#fff" stroke-width="2" stroke-miterlimit="10"/><path d="M19.428 3.392c-2.842 1.554-5.334 5.316-6.076 8.461-.742 3.145-.608 6.431-.46 9.665M20.645 3.169a17.494 17.494 0 015.674 8.245 40.928 40.928 0 011.061 8.922M20.23.031v4.313" stroke="#fff" stroke-width="2" stroke-miterlimit="10"/></svg>